<?xml version="1.0" standalone="no"?>
<!DOCTYPE svg PUBLIC "-//W3C//DTD SVG 1.1//EN" "http://www.w3.org/Graphics/SVG/1.1/DTD/svg11.dtd" >
<svg xmlns="http://www.w3.org/2000/svg">
<metadata>
This is a custom SVG webfont generated by Font Squirrel.
Copyright   : Copyright c 2010 2011 Vernon Adams vernnewtypographycouk with Reserved Font Name Coda and Coda Caption
</metadata>
<defs>
<font id="CodaRegular" horiz-adv-x="1438" >
<font-face units-per-em="2048" ascent="1638" descent="-410" />
<missing-glyph horiz-adv-x="399" />
<glyph unicode=" "  horiz-adv-x="399" />
<glyph unicode="&#x09;" horiz-adv-x="399" />
<glyph unicode="&#xa0;" horiz-adv-x="399" />
<glyph unicode="!" horiz-adv-x="492" d="M138 1418q0 72 24 105t84 33t84 -33t24 -105q0 -54 -79 -884q-3 -36 -29 -36t-29 36q-79 830 -79 884zM148 0q0 38 0.5 114t0.5 114h196q0 -38 0.5 -114t0.5 -114h-198z" />
<glyph unicode="&#x22;" horiz-adv-x="697" d="M125 1363q0 77 17 107t70 30q86 0 86 -122q0 -37 -18 -150.5t-36 -209.5l-19 -95l-25 6q-75 355 -75 434zM404 1363q0 77 17 107t70 30q86 0 86 -122q0 -37 -18.5 -150.5t-36.5 -209.5l-18 -95l-25 6q-75 355 -75 434z" />
<glyph unicode="#" horiz-adv-x="1418" d="M37 406l27 155h274l67 402h-270l27 168h272l64 359h182l-63 -359h322l62 359h176l-61 -359h273l-23 -168h-278l-67 -402h277l-23 -155h-279l-70 -406h-176l70 406h-328l-72 -406h-177l69 406h-275zM519 561h325l68 402h-324z" />
<glyph unicode="$" horiz-adv-x="1176" d="M131 380l185 30q3 -22 6 -62q6 -62 11.5 -87.5t21.5 -56.5t50 -40.5t89 -16.5t147 -7q88 0 143 4.5t91 12.5t52.5 26t22 39.5t5.5 58.5v45q0 191 -10.5 251t-61.5 69l-498 87q-130 22 -181 99t-54 249q0 92 9.5 157.5t33 115t58 79.5t91 48.5t124 25t165.5 6.5 q80 0 137.5 -3.5t112 -12.5t90.5 -25t66.5 -41.5t47.5 -62t26 -85.5t9 -113l-178 -41q-10 110 -13 125q-12 51 -57 69q-50 21 -209 21q-87 0 -143.5 -5t-92.5 -14.5t-53.5 -28.5t-23.5 -40.5t-6 -56.5v-173q0 -92 82 -108l358 -61q61 -12 89.5 -18.5t74 -19.5t66 -26 t50.5 -35t42 -49.5t26.5 -66.5t19 -89.5t4.5 -115.5t-4 -117.5t-14.5 -96t-22.5 -76.5t-34 -58.5t-43.5 -43.5t-56 -30.5t-66.5 -20t-80 -11.5t-91.5 -5.5t-106.5 -1.5q-119 0 -199.5 7t-137 30t-87.5 47.5t-49 78t-23.5 102.5t-9.5 139zM608 -176v1817h94v-1817h-94z" />
<glyph unicode="%" horiz-adv-x="2216" d="M118 1124q0 95 17.5 155.5t61 96t106 49t162.5 13.5q66 0 113.5 -4t86 -20t62.5 -30.5t42 -52.5t26.5 -68.5t13.5 -96.5t6 -118t1 -150q0 -182 -76.5 -248t-274.5 -66q-53 0 -93 2.5t-74.5 12.5t-59 17.5t-44 31t-32 40t-21.5 56.5t-13 68t-6.5 87.5t-3 101.5t-0.5 123z M265.5 881.5q0.5 -32.5 6.5 -74t14.5 -52t32.5 -24t51 -14.5t78 -1q55 0 85.5 1.5t58 10.5t38.5 20t19.5 38.5t10 58t1.5 85.5v116q0 157 -9 193q-11 46 -51 59q-30 9 -136 9h-51q-16 0 -40 -2t-33 -4t-24.5 -9t-20 -14t-12.5 -21t-9.5 -28.5t-5 -38.5t-3.5 -49v-62v-84 q-1 -81 -0.5 -113.5zM831 1q176 727 379 1572h171q-271 -1119 -382 -1572h-168zM1401 706q0 95 17.5 155.5t61 96t106 49t162.5 13.5q66 0 113.5 -4t86 -20t62.5 -30.5t42 -52.5t26.5 -68.5t13.5 -96.5t6 -118t1 -150q0 -182 -76.5 -248t-274.5 -66q-53 0 -93 2.5 t-74.5 12.5t-59 17.5t-44 31t-32 40t-21.5 56.5t-13 68t-6.5 87.5t-3 101.5t-0.5 123zM1548.5 463.5q0.5 -32.5 6.5 -74t14.5 -52t32.5 -24t51 -14.5t78 -1q55 0 85.5 1.5t58 10.5t38.5 20t19.5 38.5t10 58t1.5 85.5v116q0 157 -9 193q-11 46 -51 59q-30 9 -136 9h-50 q-17 0 -41 -2t-33 -4t-24.5 -9t-20 -14t-12.5 -21t-9.5 -28.5t-5 -38.5t-3.5 -49v-62v-84q-1 -81 -0.5 -113.5z" />
<glyph unicode="&#x26;" horiz-adv-x="1386" d="M112 402q0 182 55.5 292t158.5 131q-151 47 -151 358q3 70 18 123.5t35.5 89t58.5 60t70 37.5t88.5 19.5t95.5 8t107 1.5q95 0 153.5 -2t121.5 -8.5t99 -19.5t67.5 -35.5t46 -55.5t18.5 -79q7 -53 7 -114l-152 -25q-2 43 -9.5 73t-22.5 49t-33.5 29.5t-49 15.5t-62.5 6 t-80 1h-45q-189 -1 -238 -13q-62 -14 -81 -63q-16 -49 -16 -192q0 -97 18 -150t47 -69.5t78 -16.5h481v109h183v-109h133v-125l-134 -1q1 -368 1 -477q0 -54 -17.5 -96.5t-44.5 -71t-73.5 -48.5t-90 -31t-108.5 -17t-115.5 -7.5t-123.5 -1.5q-115 0 -192 10.5t-138.5 37 t-95.5 75t-51 122t-17 180.5zM308 362q0 -35 1 -54.5t4 -44.5t9.5 -38t17.5 -28.5t29 -23t42 -16t58 -12t76 -5.5t97 -2q192 0 269.5 23t84.5 75v492h-537q-32 0 -55 -8.5t-39.5 -20.5t-27 -39t-16.5 -50t-9 -69t-3.5 -80.5t-0.5 -98.5z" />
<glyph unicode="'" horiz-adv-x="434" d="M125 1363q0 77 17 107t70 30q86 0 86 -122q0 -37 -18 -150.5t-36 -209.5l-19 -95l-25 6q-75 355 -75 434z" />
<glyph unicode="(" horiz-adv-x="653" d="M119 727v2q0 158 16.5 292.5t56 254t99.5 205.5t151.5 140t208.5 64l15 -137q-98 -15 -168 -78.5t-110.5 -173t-59 -248t-18.5 -320.5t18.5 -320.5t59 -248t110.5 -173t168 -78.5l-15 -137q-117 10 -208.5 64t-151.5 140t-99.5 205.5t-56 254t-16.5 292.5z" />
<glyph unicode=")" horiz-adv-x="649" d="M-13 -92q98 15 168 78.5t110.5 173t59 248t18.5 320.5t-18.5 320.5t-59 248t-110.5 173t-168 78.5l15 137q117 -10 208.5 -64t151.5 -140t99.5 -205.5t56 -254t16.5 -292.5v-2q0 -158 -16.5 -292.5t-56 -254t-99.5 -205.5t-151.5 -140t-208.5 -64z" />
<glyph unicode="*" horiz-adv-x="1014" d="M67 1006q0 90 99 90q35 0 97.5 -15.5t142 -40t95.5 -28.5q-256 277 -256 332q0 40 23.5 66t63.5 26q22 0 42 -14.5t37.5 -50t29.5 -63.5t28 -88t23 -88t22 -97q1 -4 1.5 -7t1.5 -6q10 38 21 92q0 1 3.5 18.5t7.5 39t12 51.5t17 58.5t21.5 57t26.5 49.5t32.5 34.5 t37.5 13.5q31 0 55.5 -24t24.5 -59q0 -45 -48 -115.5t-194 -225.5q42 13 113.5 35t95 29t58.5 13.5t64 6.5q99 0 99 -90q0 -91 -103 -91q-28 0 -76.5 10.5t-84 20.5t-95 29t-71.5 22q256 -282 256 -333q0 -40 -25.5 -65t-66.5 -25q-24 0 -46.5 24t-39.5 60.5t-34 90.5 t-28.5 102t-25.5 106q-5 21 -7 31q-10 -38 -22.5 -86t-20.5 -77.5t-17.5 -65.5t-16.5 -57.5t-16.5 -45t-18.5 -36.5t-20 -25t-23.5 -16.5t-27.5 -4.5q-27 0 -53 23.5t-26 50.5q0 23 11.5 51t25.5 51t47.5 64t54 64t69.5 77q25 28 38 42q-13 -4 -73 -22t-81 -24t-63 -17 t-68 -15t-48 -4q-101 0 -101 91z" />
<glyph unicode="+" horiz-adv-x="889" d="M58 585v169h307v363h166v-363h308v-169h-308v-362h-166v362h-307z" />
<glyph unicode="," horiz-adv-x="515" d="M95 -159q67 0 119.5 47t52.5 112q-63 0 -103.5 45t-40.5 109q0 67 39.5 111t107.5 44q64 0 102.5 -52.5t38.5 -126.5q0 -84 -34 -167.5t-94.5 -138.5t-127.5 -55q-45 0 -60 4v68z" />
<glyph unicode="-" horiz-adv-x="847" d="M132 538v139h587v-139h-587z" />
<glyph unicode="." horiz-adv-x="500" d="M111 117q0 70 40.5 108.5t96.5 38.5q58 0 101 -39.5t43 -107.5q0 -71 -40.5 -109.5t-97.5 -38.5t-100 39.5t-43 108.5z" />
<glyph unicode="/" horiz-adv-x="629" d="M36 -26l367 1542h178l-366 -1542h-179z" />
<glyph unicode="0" horiz-adv-x="1260" d="M130 776q0 84 1.5 145.5t6.5 127t13.5 112t22.5 94t34.5 79.5t48.5 62.5t64 49t82 33.5t103 21t126 6q95 0 167 -13t125.5 -37.5t90.5 -67.5t60.5 -92.5t36.5 -125t17.5 -154t4.5 -187.5q0 -327 -12 -438q-21 -203 -105 -293q-100 -106 -341 -113q-21 -1 -44 -1 q-93 0 -164 9.5t-123.5 38.5t-89 56t-60 87.5t-37 106.5t-19.5 139.5t-7.5 160.5t-1.5 194zM315 740q0 -267 11 -439q5 -85 78 -124t228 -39t228 39t78 124q11 172 11 439q-2 48 -4.5 203t-7.5 236q-6 93 -80.5 135.5t-224.5 42.5q-151 0 -225.5 -42.5t-79.5 -135.5 q-4 -63 -6 -135t-3.5 -163.5t-2.5 -140.5z" />
<glyph unicode="1" horiz-adv-x="584" d="M45 1244v92q160 6 217 146h155v-1482h-187v1244h-185z" />
<glyph unicode="2" horiz-adv-x="1095" d="M94 9q1 156 20.5 250.5t65.5 159.5t134 127q59 41 129.5 84t110.5 66.5t85 55.5t68.5 60t44.5 69t29 93.5t8 123.5q0 43 -0.5 66.5t-4 55t-10 47.5t-18 36t-29 29.5t-42.5 19t-59 13t-78 3.5q-83 0 -130.5 -7.5t-84 -33.5t-53 -73.5t-23.5 -128.5l-148 35q-1 9 -1 27 q0 171 107 245.5t318 74.5q82 0 141 -6.5t111 -23.5t86 -46.5t58.5 -75t35 -109t10.5 -148.5q0 -138 -33.5 -231.5t-95.5 -153.5t-171 -119q-26 -15 -68.5 -39t-65 -37t-57 -34t-52.5 -35t-44 -36t-39.5 -40.5t-29.5 -44.5t-24 -52.5t-13.5 -59.5t-6.5 -70h682v-137h-863z " />
<glyph unicode="3" horiz-adv-x="1124" d="M79 265q0 39 1 63l160 23q1 -12 2.5 -33.5t3 -39t3.5 -33.5q8 -70 70.5 -96.5t206.5 -26.5q77 0 124 2.5t82.5 19t51 30t25 57.5t10.5 77t1 113v3q0 83 -14 134t-33 80.5t-76 42t-102.5 15t-153.5 2.5h-6l-8 142q123 0 161 1q67 2 110 16t66.5 32t34 65t12.5 82.5 t2 118.5v17q0 60 -9 94t-39 59t-84 34t-147 9q-153 0 -211 -24t-63 -91l-9 -109l-154 30v28q0 71 10 117t37 84t78 58.5t129 31.5t195 13q233 0 340 -88.5t107 -283.5q0 -91 -17.5 -160.5t-40.5 -105t-55.5 -58.5t-52 -29.5t-39.5 -10.5q-5 -1 -7 -1q15 -3 26.5 -5.5 t35.5 -13t42.5 -25t41.5 -41.5t38 -61.5t25.5 -87t11.5 -115.5q0 -106 -22 -182.5t-61 -125.5t-103 -77.5t-138 -39.5t-176 -11q-107 0 -180 11.5t-130.5 42t-85 86.5t-27.5 141z" />
<glyph unicode="4" horiz-adv-x="1060" d="M45 389v150l518 943h289v-961h139v-131h-139v-390h-185v389h-622zM238 521h429v858q-17 -35 -51 -102.5t-46 -91.5l-235 -472q-16 -33 -49 -97.5t-48 -94.5z" />
<glyph unicode="5" horiz-adv-x="1197" d="M144 289q0 10 1 31.5t1 33.5l151 21q5 -59 10 -91t17 -63.5t28.5 -45t49.5 -25t74.5 -14.5t107.5 -3q86 0 146.5 12t95.5 31.5t54 53t25 67.5t6 84q0 21 -1.5 69.5t-1.5 75.5q0 52 -0.5 79t-5 61t-11.5 49t-22.5 34t-36 26t-53.5 14.5t-73.5 9t-97.5 1.5q-44 0 -71 -1 t-60 -5.5t-53 -14.5t-40.5 -26.5t-32.5 -42t-18 -61.5l-174 13v822h842v-154h-645l-32 -569q15 37 28.5 61t38.5 51t57 42.5t83 25.5t117 10q94 0 163.5 -11.5t118.5 -39t79.5 -64t48 -95t24 -123.5t6.5 -158q0 -101 -10.5 -173.5t-36 -126.5t-62 -87t-96 -53.5t-130 -28 t-170.5 -7.5q-60 0 -106 3t-94 11t-82 22t-65.5 36.5t-50.5 54.5t-30 76.5t-11 101.5z" />
<glyph unicode="6" horiz-adv-x="1245" d="M134 655q0 328 9 427q17 203 93 293q88 105 305 121q48 4 103 4q67 0 114.5 -2.5t98.5 -10.5t85 -23.5t62.5 -40t42 -62.5t13.5 -89q0 -19 -8 -99q-85 -9 -160 -21q0 45 -0.5 66t-4 49t-8.5 38.5t-18.5 25.5t-28 18.5t-42.5 8.5t-58 5.5t-78 0.5q-179 -5 -244 -40.5 t-73 -136.5q-10 -224 -14 -405q29 53 68.5 88t106.5 56.5t159 21.5q71 0 124 -3.5t102 -13t83.5 -25.5t64.5 -41t48.5 -59t32.5 -81t19.5 -105t6.5 -132q0 -102 -8 -174t-29.5 -131t-54.5 -95t-87 -60.5t-124 -34t-168 -9.5q-126 0 -210 10.5t-145.5 44t-95 75.5t-53 126.5 t-24.5 174t-5 240.5zM318 370q0 -57 5.5 -91.5t23.5 -68t53 -51t94.5 -28t146.5 -10.5q64 0 111 4t81 10.5t56.5 20.5t36 28t20 39t8.5 48.5t2 61.5q0 279 -2 310q-5 89 -69 119t-243 32q-79 0 -134.5 -6.5t-91 -24.5t-55 -35t-28.5 -55t-11 -65.5t-2 -83.5q0 -31 -1 -82 t-1 -72z" />
<glyph unicode="7" horiz-adv-x="847" d="M33 1330v152h744v-170q-301 -779 -447 -1312h-184q185 630 462 1330h-575z" />
<glyph unicode="8" horiz-adv-x="1223" d="M144 383q0 167 45.5 260t136.5 155q-109 80 -109 334q0 210 97.5 292t319.5 82t319.5 -82t97.5 -292q0 -254 -109 -334q91 -62 136.5 -155t45.5 -260q0 -99 -18 -168t-52.5 -114.5t-96 -71t-137.5 -35.5t-187 -10h2q-111 0 -187 10t-137.5 35.5t-96 71t-52.5 114.5 t-18 168zM320 320q0 -40 6 -67t24.5 -53t52.5 -40.5t91.5 -23.5t139.5 -9t139.5 9t91.5 23.5t52.5 40.5t24.5 53t6 67q0 24 -1.5 81.5t-1.5 91.5q0 47 -6 80t-13.5 57.5t-29.5 39t-39 23.5t-58.5 12.5t-72 4.5t-93.5 1h2q-63 0 -93.5 -1t-72 -4.5t-58.5 -12.5t-39 -23.5 t-29.5 -39t-13.5 -57.5t-6 -80q0 -34 -1.5 -91.5t-1.5 -81.5zM386 1141q0 -237 77 -286h170h172q77 49 77 286q0 42 -0.5 66t-5 50t-10.5 39t-19.5 26.5t-29.5 18.5t-44.5 10t-60 6t-79.5 1h2q-48 0 -79.5 -1t-60 -6t-44.5 -10t-29.5 -18.5t-19.5 -26.5t-10.5 -39t-5 -50 t-0.5 -66z" />
<glyph unicode="9" horiz-adv-x="1249" d="M125 1002q0 104 9 179t31.5 132.5t56.5 93.5t88.5 58.5t122 31.5t162.5 9q124 0 206 -10.5t142.5 -44t93.5 -75.5t52 -125.5t24 -172.5t5 -237q0 -346 -9 -448q-16 -195 -85 -278q-77 -93 -264 -111q-58 -6 -133 -6q-59 0 -98.5 1t-91.5 5.5t-86.5 12.5t-71 23.5 t-58 37.5t-35.5 54.5t-14 74.5q0 55 9 110q81 9 159 21q0 -39 0.5 -59t4.5 -46.5t10.5 -38.5t20.5 -27t33 -20.5t49.5 -12t68 -8t90.5 -1.5q94 2 146.5 9.5t87 28t47 51.5t18.5 88q10 230 14 417q-90 -166 -325 -166q-95 0 -161.5 7t-123 25.5t-91.5 49.5t-59.5 82 t-34.5 120t-10 165zM305 979q0 -66 1.5 -97.5t11.5 -69.5t28.5 -52t55 -29.5t88 -19.5t131.5 -5q167 0 236 36.5t74 127.5q2 69 2 210q0 67 -1.5 97.5t-10.5 72t-27.5 57.5t-53.5 34t-88 23t-132 5q-131 0 -197 -17t-88.5 -49t-25.5 -97q-4 -150 -4 -227z" />
<glyph unicode=":" horiz-adv-x="537" d="M133 288q0 73 41 113t97 40q57 0 99.5 -40.5t42.5 -112.5t-42 -112t-99 -40t-98 40t-41 112zM133 1079q0 73 41 113t98 40t99 -40.5t42 -112.5q0 -73 -41 -113.5t-98 -40.5t-99 41t-42 113z" />
<glyph unicode=";" horiz-adv-x="547" d="M111 -29q67 0 119.5 47t52.5 112q-62 0 -103.5 45t-41.5 110t40 109.5t107 44.5q63 0 102.5 -53t39.5 -126q0 -85 -34.5 -168t-95 -138t-127.5 -55q-44 0 -59 4v68zM143 1079q0 67 37.5 110.5t102.5 43.5q61 0 100.5 -45t39.5 -109q0 -68 -37.5 -111t-102.5 -43 q-62 0 -101 44.5t-39 109.5z" />
<glyph unicode="&#x3c;" horiz-adv-x="874" d="M65 667v165l696 449v-236l-519 -287l519 -296v-228z" />
<glyph unicode="=" horiz-adv-x="1138" d="M153 314v189h835v-189h-835zM153 692v189h835v-189h-835z" />
<glyph unicode="&#x3e;" horiz-adv-x="878" d="M121 234v227l520 296l-520 288v236l698 -449v-165z" />
<glyph unicode="?" horiz-adv-x="764" d="M66 1457q142 65 255 65q180 0 275 -92.5t95 -268.5q-1 -188 -170 -358q-163 -164 -174 -320h-103q0 138 37.5 229.5t129.5 213.5q46 61 64.5 108t18.5 115q0 85 -46.5 134.5t-133.5 49.5q-66 0 -227 -40zM146 117q0 70 40.5 108.5t96.5 38.5q58 0 101 -39.5t43 -107.5 q0 -71 -40.5 -109.5t-97.5 -38.5t-100 39.5t-43 108.5z" />
<glyph unicode="@" horiz-adv-x="1968" d="M107 627q0 265 48 451.5t154.5 312.5t276.5 185t414 59q132 0 237.5 -12.5t191.5 -40t150.5 -67.5t113.5 -100t81 -132t52 -169t28.5 -205.5t8.5 -246.5q0 -85 -2 -142.5t-8 -119t-18 -100.5t-31.5 -78t-48 -61.5t-68 -40.5t-92 -25.5t-119.5 -7.5q-152 0 -166 125 q-34 -151 -417 -151q-196 0 -269 73.5t-73 275.5q0 189 69 275.5t238 86.5q157 0 381 -40v227q0 49 -7 78.5t-26 44t-42 19t-64 4.5h-209q-51 0 -78.5 -24t-27.5 -89q0 -53 4 -89h-163q-12 60 -12 111q0 55 13 96.5t41.5 69t63 45t87.5 26.5t104.5 12t124.5 3 q388 0 388 -322v-729q141 0 179 26q14 10 21.5 19.5t15 21.5t11 35t6.5 47t4 73.5t1.5 97.5t0.5 135q0 115 -5 201t-17.5 168.5t-35 140t-57.5 108.5t-83.5 83.5t-115 56.5t-151 34t-191.5 10q-139 0 -245.5 -20t-187.5 -64t-135.5 -108t-89 -157t-49.5 -205.5t-15 -258.5 q0 -152 12 -265.5t41 -210.5t76.5 -162t119.5 -111.5t169.5 -69t226.5 -24.5q240 0 629 107l48 -147q-275 -120 -605 -120q-256 0 -425.5 50t-279 167t-156 299t-46.5 455zM732 366q0 -43 4.5 -67t18 -46t42 -32t73.5 -15.5t115 -5.5q84 0 136.5 9.5t80.5 33t37.5 54 t9.5 79.5q0 31 -5 118.5t-5 129.5h-206q-32 0 -80.5 0.5t-64.5 0.5q-25 0 -42 -0.5t-33 -4t-26 -6.5t-19.5 -13t-15 -17t-10 -25.5t-6 -32.5t-3 -43.5t-1.5 -52.5v-64z" />
<glyph unicode="A" horiz-adv-x="1296" d="M54 0l457 1490h271l446 -1490h-206l-113 381h-551l-109 -381h-195zM401 525h466l-126 447l-104 366q-58 -207 -102 -356z" />
<glyph unicode="B" horiz-adv-x="1355" d="M171 0v1490h566q113 0 187.5 -11.5t132 -41.5t83.5 -85t27 -140l1 -108q0 -68 -5 -111t-17.5 -78t-37.5 -55t-60.5 -33.5t-91.5 -23.5q68 -7 117 -30t77.5 -55t44.5 -81t21 -96t5 -112q-1 -63 -4.5 -110.5t-11.5 -89.5t-17 -71t-28.5 -54.5t-37.5 -41t-51.5 -28 t-64.5 -18.5t-82.5 -10t-99 -5t-119.5 -1h-534zM372 151h382q116 0 175 19.5t78 58.5q18 37 18 107v8l-2 133q-2 119 -9 150q-14 55 -69 75q-68 26 -304 27h-35h-234v-578zM372 860h201q131 0 212 7.5t120.5 26t52 39.5t12.5 56v158v6v59q0 18 -5.5 43.5t-11 33.5t-25 21.5 t-38.5 16t-59.5 7t-80.5 4.5h-109h-269v-478z" />
<glyph unicode="C" horiz-adv-x="1360" d="M140 748q0 112 1 180t6 148t12.5 124t24 96.5t37.5 78t55 55.5t74.5 41.5t98.5 23.5t124.5 15t154.5 3q91 0 155 -6.5t120 -25t92 -49t63.5 -79.5t42.5 -115.5t22 -159.5l-175 -34q-5 51 -9 85t-11.5 67t-12 53.5t-18.5 40t-22.5 29.5t-31.5 19t-38.5 12.5t-51 6.5 t-61.5 3h-76q-70 0 -114.5 -1.5t-89 -7t-70 -16t-47.5 -28t-31.5 -43t-11.5 -61.5q-9 -264 -9 -539q0 -192 9 -375q5 -57 32.5 -89t107 -51t225.5 -19q78 0 131 4.5t89 21t55 30t30.5 52.5t15 65.5t7.5 90.5q1 14 1.5 22t1.5 21.5t2 24.5l174 -26q-5 -96 -17 -163.5 t-35.5 -120.5t-57.5 -85.5t-87.5 -53.5t-120 -29t-160.5 -8q-90 0 -161 4.5t-129.5 20t-102 30t-77 48.5t-56 61t-38 82.5t-23.5 97.5t-12.5 122t-5.5 140t-1 166z" />
<glyph unicode="D" horiz-adv-x="1420" d="M171 0v1490h516q126 0 213 -10.5t155.5 -39t109.5 -71.5t67.5 -114.5t36 -160.5t9.5 -218q0 -137 -1.5 -225.5t-9.5 -181t-17 -146.5t-33.5 -110.5t-48 -84t-71.5 -56.5t-94 -39t-124.5 -20t-154 -11.5t-191.5 -1.5h-362zM374 153h240q86 0 134 1.5t104 8.5t82.5 18.5 t57.5 36t43 56t24 83t15 113.5t3 150v253q0 92 -0.5 132.5t-7 101.5t-18 83.5t-36.5 57.5t-58.5 44.5t-88 24t-121.5 17t-163 2.5h-210v-1183z" />
<glyph unicode="E" horiz-adv-x="1148" d="M171 0v1490h835l20 -154h-652v-479h557v-162h-557v-542h661l-20 -153h-844z" />
<glyph unicode="F" horiz-adv-x="1051" d="M171 0v1490h798l20 -154h-615v-486h524v-162h-524v-688h-203z" />
<glyph unicode="G" horiz-adv-x="1387" d="M134 744q0 99 1.5 169t7 143t15 121.5t26 98t38.5 80t55 60.5t73.5 46t94.5 29t118 17.5t145 4.5h15q70 0 106 -1t97.5 -7.5t94.5 -20t76 -40t64 -65t37 -97.5t16 -136q0 -18 -2 -50l-179 -34l-11 197q-2 64 -73 82.5t-269 18.5q-135 0 -204 -16.5t-96 -50.5t-33 -101 q-9 -205 -9 -420q0 -216 9 -420q5 -108 17 -140q19 -49 87 -66q64 -16 223 -16q342 0 379 46q-1 103 -1 418h-252l-17 151h455v-639q-142 -130 -575 -130q-85 0 -149.5 7t-118 18t-91.5 37.5t-67 53.5t-47 78.5t-29.5 99.5t-17 129t-7.5 155t-2 190z" />
<glyph unicode="H" horiz-adv-x="1414" d="M171 0v1490h203v-648h666v648h203v-1490h-203v684h-666v-684h-203z" />
<glyph unicode="I" horiz-adv-x="547" d="M172 0v1490h203v-1490h-203z" />
<glyph unicode="J" horiz-adv-x="726" d="M71 29l21 154q92 -35 155 -35q65 0 87.5 41t22.5 118v1183h203v-1058q0 -61 -1 -100.5t-4.5 -88t-11 -79t-19.5 -64.5t-30.5 -54t-44.5 -37.5t-61 -25t-79 -7.5q-121 0 -238 53z" />
<glyph unicode="K" horiz-adv-x="1248" d="M171 0v1490h202v-507q0 -29 -0.5 -91.5t-0.5 -89.5q15 19 115 147l425 541h241l-544 -661l610 -829h-245l-523 732l-78 -93v-639h-202z" />
<glyph unicode="L" horiz-adv-x="1025" d="M171 0v1490h203v-1337h574l-20 -153h-757z" />
<glyph unicode="M" horiz-adv-x="1694" d="M126 0l99 1499h209l416 -1173l402 1173h220l99 -1499h-198l-72 1201l-394 -1201h-122l-421 1192l-64 -1192h-174z" />
<glyph unicode="N" horiz-adv-x="1441" d="M171 0v1490h205l716 -1193v1193h178v-1490h-211l-710 1177v-1177h-178z" />
<glyph unicode="O" d="M137 812q0 148 8 246t31.5 182t62 132t105 82.5t155 47t216.5 12.5q121 0 207 -12t152.5 -42.5t107 -76t66.5 -119.5t35.5 -165.5t9.5 -222.5q0 -370 -11 -487q-19 -200 -92 -286q-77 -92 -262 -116q-88 -11 -213 -11q-87 0 -154.5 4t-124.5 19.5t-97.5 28.5t-73 49.5 t-53.5 63t-36 88t-22 105t-11.5 134.5t-5 156t-0.5 188zM341 725q0 -282 15 -386q24 -156 91 -180q50 -29 268 -29t268 29q19 7 34.5 23t26 43t18.5 54.5t13 70.5t8 77.5t4 88t1.5 88.5t0.5 93q0 202 -3 400q-2 60 -6.5 95t-19 68.5t-37.5 49.5t-65.5 29t-99.5 17t-143 4 t-143 -4t-99.5 -17t-65.5 -29t-37.5 -49.5t-19 -68.5t-6.5 -95q-3 -185 -3 -372z" />
<glyph unicode="P" horiz-adv-x="1301" d="M171 0v1490h540q93 0 157.5 -7.5t119.5 -27.5t88 -54t57 -89t33.5 -129.5t11.5 -178.5q0 -91 -9 -161.5t-24.5 -121.5t-41.5 -87t-55.5 -58t-72 -34.5t-85 -16.5t-100.5 -4l-417 -1v-520h-202zM373 672h373q78 0 124 12.5t69.5 44.5t30 70.5t6.5 106.5q0 16 -0.5 52 t-0.5 57q-1 72 -4 117t-11.5 85t-22 61t-37 36.5t-55 20.5t-78.5 5l-394 -1v-667z" />
<glyph unicode="Q" d="M137 812q0 148 8 246t31.5 182t62 132t105 82.5t155 47t216.5 12.5q121 0 207 -12t152.5 -42.5t107 -76t66.5 -119.5t35.5 -165.5t9.5 -222.5v-33q0 -124 -0.5 -181.5t-3 -150.5t-8.5 -134.5t-16.5 -105t-27 -93t-41 -66.5t-57 -57.5t-75.5 -36.5l167 -261l-139 -115 l-223 339q-57 -5 -154 -5q-87 0 -154.5 4t-124.5 19.5t-97.5 28.5t-73 49.5t-53.5 63t-36 88t-22 105t-11.5 134.5t-5 156t-0.5 188zM341 725q0 -282 15 -386q24 -156 91 -180q50 -29 268 -29t268 29q19 7 34.5 23t26 43t18.5 54.5t13 70.5t8 77.5t4 88t1.5 88.5t0.5 93 q0 202 -3 400q-2 60 -6.5 95t-19 68.5t-37.5 49.5t-65.5 29t-99.5 17t-143 4t-143 -4t-99.5 -17t-65.5 -29t-37.5 -49.5t-19 -68.5t-6.5 -95q-3 -185 -3 -372z" />
<glyph unicode="R" horiz-adv-x="1357" d="M171 0v1490h455q72 0 122.5 -1.5t106.5 -6.5t94 -14t77.5 -24t65 -37t48.5 -52.5t36 -70t20.5 -90.5t7.5 -114q0 -191 -72 -283.5t-201 -113.5q192 -39 228 -244l77 -439h-217q-8 46 -18.5 133.5t-19.5 148t-24 128.5t-39.5 114t-58.5 68q-54 23 -177 23h-309v-615h-202z M373 774h349q77 0 127 8t81.5 22.5t47.5 44t21 63t5 89.5v139q0 38 -1.5 59.5t-7.5 46t-18.5 37t-33 25t-53 17.5t-76 8.5t-104.5 3.5h-337v-563z" />
<glyph unicode="S" horiz-adv-x="1291" d="M131 380l185 30q3 -22 6 -62q6 -62 11.5 -87.5t21.5 -56.5t50 -40.5t89 -16.5t147 -7q76 0 125 4t86 16.5t56 28.5t30.5 49.5t14.5 69.5q2 27 2 67v29q-1 132 -14.5 182.5t-57.5 59.5l-498 87q-130 22 -181 99t-54 249q0 92 9.5 157.5t33 115t58 79.5t91 48.5t124 25 t165.5 6.5q80 0 137.5 -3.5t112 -12.5t90.5 -25t66.5 -41.5t47.5 -62t26 -85.5t9 -113l-178 -41q-10 110 -13 125q-12 51 -57 69q-50 21 -209 21q-87 0 -143.5 -5t-92.5 -14.5t-53.5 -28.5t-23.5 -40.5t-6 -56.5v-173q0 -94 82 -108l358 -61q50 -8 80 -14t69 -16t61 -21 t49 -28t42 -38t30.5 -50t23 -65.5t12.5 -83t5 -104.5q0 -65 -4 -117.5t-14.5 -96t-22.5 -76.5t-34 -58.5t-43.5 -43.5t-56 -30.5t-66.5 -20t-80 -11.5t-91.5 -5.5t-106.5 -1.5q-119 0 -199.5 7t-137 30t-87.5 47.5t-49 78t-23.5 102.5t-9.5 139z" />
<glyph unicode="T" horiz-adv-x="994" d="M12 1336v154h973v-154h-389v-1336h-203v1336h-381z" />
<glyph unicode="U" horiz-adv-x="1442" d="M157 557v933h203v-959q0 -83 0.5 -120t5.5 -90.5t13 -73t26.5 -48.5t42 -36.5t64.5 -18.5t88.5 -12.5t118.5 -1.5q84 0 140.5 5t98.5 20t64.5 34.5t36 57.5t17.5 79t4 109l-1 1055h203v-933q0 -120 -10.5 -206t-37.5 -152.5t-67.5 -108t-106 -68t-146.5 -36.5t-196 -10 q-111 0 -189 9t-144 33.5t-106.5 65t-69.5 106t-40.5 154.5t-11.5 213z" />
<glyph unicode="V" horiz-adv-x="1222" d="M25 1490h215l371 -1231l371 1231h220l-490 -1490h-210z" />
<glyph unicode="W" horiz-adv-x="1753" d="M56 1490h214l231 -1211l285 1211h201l293 -1211l231 1211h188l-319 -1490h-217l-284 1173l-282 -1173h-216z" />
<glyph unicode="X" horiz-adv-x="1208" d="M63 0l429 766l-408 724h217l306 -556l308 556h217l-407 -724l428 -766h-222l-324 590l-323 -590h-221z" />
<glyph unicode="Y" horiz-adv-x="1087" d="M-1 1490h221l325 -763l331 763h214l-451 -972v-518h-202v518z" />
<glyph unicode="Z" horiz-adv-x="1110" d="M99 0v176l571 952l128 210h-634l-17 152h851v-179l-559 -950l-126 -210h685v-151h-899z" />
<glyph unicode="[" horiz-adv-x="608" d="M173 -257v1910h446v-151h-255v-1607h255v-152h-446z" />
<glyph unicode="\" horiz-adv-x="644" d="M61 1516h199l343 -1542h-199z" />
<glyph unicode="]" horiz-adv-x="613" d="M-3 -105h254v1607h-254v151h445v-1910h-445v152z" />
<glyph unicode="^" horiz-adv-x="801" d="M121 1445l192 309q35 52 94 52t94 -52l192 -309l-55 -54l-231 236l-231 -236z" />
<glyph unicode="_" horiz-adv-x="1118" d="M141 0h837v-127h-837v127z" />
<glyph unicode="`" horiz-adv-x="679" d="M91 1540q0 41 28 70.5t75 29.5q44 0 84 -35q17 -14 91 -88t139 -141l66 -68l-17 -21l-93 35q-93 35 -192 72t-110 42q-35 15 -53 44t-18 60z" />
<glyph unicode="a" horiz-adv-x="1111" d="M101 354q0 47 16.5 84t45 63t76 45t98.5 30t123.5 17.5t141.5 8.5t161 2v297q0 51 -48 70.5t-171 19.5q-86 0 -129 -4t-65.5 -23.5t-26 -38.5t-4.5 -71q-1 -19 -1 -30l-153 6q-2 16 -2 47q0 67 19.5 113.5t50.5 73t85 41.5t107 19t132 4q120 0 195 -18.5t123 -66.5 t66.5 -122.5t18.5 -194.5v-726h-156l-32 157q-30 -103 -108.5 -137.5t-229.5 -34.5q-100 0 -164 19.5t-102 65.5t-52.5 112.5t-14.5 171.5zM283 348q0 -152 25 -189t153 -37q109 0 177 26t94.5 66.5t30.5 99.5v171q-197 0 -303 -15t-141.5 -41.5t-35.5 -74.5v-6z" />
<glyph unicode="b" horiz-adv-x="1200" d="M166 0v1519l197 16v-559q33 78 106 115t198 37q68 0 122.5 -8.5t95 -27.5t70.5 -42.5t50 -60t32.5 -73.5t19.5 -89.5t9 -100.5t2 -115q0 -76 -1 -126t-4 -109t-9 -96.5t-16 -80t-25 -68.5t-36 -53t-49 -42t-64 -28t-81 -18t-100 -5q-262 0 -319 153l-18 -138h-180z M363 269q0 -82 58 -114.5t200 -32.5q141 0 194 25q57 20 57 202l-1 412q0 43 -0.5 64.5t-4 50.5t-9.5 41t-18.5 28.5t-30 22.5t-45 12.5t-61.5 8t-82 1.5q-101 0 -157.5 -14.5t-81.5 -48.5q-18 -34 -18 -154v-504z" />
<glyph unicode="c" horiz-adv-x="1112" d="M119 619q0 80 3 138.5t12 112t23.5 89t39 66.5t56 49t78 31t102 18t129.5 5q95 0 159.5 -9.5t114.5 -31.5t79 -62.5t45 -99t20 -144.5l-162 -27l-21 139q-8 48 -19 61q-26 30 -144 34q-28 1 -62 1q-136 0 -178 -15q-46 -8 -67 -91t-21 -203l2 -173v-99v-116 q0 -34 8.5 -76t20 -52.5t43.5 -24.5t68.5 -15t105.5 -1q54 0 93.5 4t67 9.5t45 19t27 24.5t14.5 34.5t6.5 40.5t3.5 51.5t5 58.5l164 -28q-6 -78 -13.5 -125t-25 -91t-44 -66.5t-73 -40.5t-108 -23.5t-153.5 -5.5q-66 0 -118.5 4t-95.5 16.5t-75 24t-56.5 40.5t-41 50 t-27.5 68t-17 80t-9 100.5t-3.5 114.5t-0.5 136z" />
<glyph unicode="d" horiz-adv-x="1179" d="M112 566q0 81 2.5 140t10 117t20 97.5t33.5 76.5t50.5 59.5t70.5 40t94 24.5t120 7q129 0 200.5 -34.5t102.5 -109.5v535l197 16v-1535h-180l-19 138q-61 -153 -319 -153q-69 0 -123.5 9t-94 31t-67.5 45.5t-46.5 68t-29 81t-15.5 101.5t-6 113.5t-1 131.5zM309 706 q0 -169 6 -473q5 -66 53.5 -88.5t190.5 -22.5q140 0 195.5 28t61.5 105v583q0 87 -54 119.5t-203 32.5q-116 0 -172 -17q-46 -14 -62 -82.5t-16 -184.5z" />
<glyph unicode="e" horiz-adv-x="1141" d="M119 534q0 138 3.5 215t19.5 154.5t43 112.5t80 65t125 38.5t183 8.5q77 0 133 -4.5t103 -18.5t77.5 -32t54 -53t36 -72.5t20.5 -99.5t10 -125.5t2 -158.5q-119 -12 -149 -14h-545q1 -145 8 -318q5 -67 57.5 -88.5t204.5 -21.5q57 0 98 4.5t66.5 16t40 22t21.5 33t9 38 t4 47t5 51.5l153 -28q-2 -70 -10 -118.5t-27 -85.5t-45 -58.5t-70 -35.5t-97 -18.5t-131 -4.5q-100 0 -174 11.5t-126.5 28.5t-86.5 55.5t-53.5 73.5t-28.5 103t-11.5 123.5t-2.5 153.5zM316 655h496q-2 128 -10 234q-4 61 -52.5 81.5t-177.5 20.5q-143 0 -181 -16 q-17 -5 -29.5 -17.5t-20.5 -35.5t-12.5 -43t-7 -55.5t-3.5 -55t-1.5 -59.5t-0.5 -54z" />
<glyph unicode="f" horiz-adv-x="694" d="M73 984v113h129q0 55 0.5 89.5t2.5 76.5t5 67t9.5 54t15 45.5t21.5 34.5t29.5 27t38.5 17t48.5 11t60.5 3q81 0 170 -17v-143q-54 3 -104 3q-62 0 -75 -6q-22 -11 -25 -67q-1 -21 -1 -57q0 -15 0.5 -60.5t0.5 -77.5h198v-113h-198v-984h-197v984h-129z" />
<glyph unicode="g" horiz-adv-x="1173" d="M119 524q0 113 2 177t9 138.5t23 112.5t41.5 77.5t66.5 56.5t96.5 28t132.5 11q131 0 210 -35.5t115 -114.5l19 122h179v-958q0 -99 -6.5 -167t-24 -127t-47.5 -94.5t-79.5 -61.5t-116.5 -36t-161 -10q-196 0 -312 41l13 136q112 -31 266 -31q73 0 123.5 8t79 20t44 34.5 t20 44.5t4.5 56l-1 179q-27 -70 -93 -102t-186 -32q-86 0 -150 12t-109 30t-74.5 56.5t-46.5 73t-25 99t-10 116t-2 140.5zM314 746q0 -289 8 -504q3 -47 24.5 -69t73.5 -30.5t163 -8.5q223 0 233 89v610q0 84 -55.5 120.5t-198.5 36.5q-140 0 -192 -25q-56 -27 -56 -219z " />
<glyph unicode="h" horiz-adv-x="1191" d="M166 0v1486l198 16v-488q72 114 298 114q59 -1 106.5 -7.5t84.5 -15.5t65 -25t48 -33t34 -42.5t22 -49.5t12.5 -59t6 -65.5t1.5 -74.5q0 -19 -0.5 -61.5t-0.5 -65.5v-629h-197v666q0 36 1.5 91t1.5 73q0 50 -7.5 77t-34.5 48t-76 28t-134 7q-40 0 -75.5 -4.5t-67.5 -15 t-52 -29.5t-22 -45q-14 -180 -14 -324v-572h-198z" />
<glyph unicode="i" horiz-adv-x="533" d="M167 0v1097h197v-1097h-197zM167 1348v173h197v-173h-197z" />
<glyph unicode="j" horiz-adv-x="515" d="M-21 -172q12 1 34.5 1t35 0.5t30.5 3.5t28.5 10t21 18t15 30t4.5 45v1161h197v-1036q0 -200 -54.5 -281.5t-200.5 -81.5q-44 0 -106 8zM147 1348v173h199v-173h-199z" />
<glyph unicode="k" horiz-adv-x="1110" d="M166 0v1486l198 16v-720q0 -25 -0.5 -79t-0.5 -78q32 34 91.5 100t79.5 87l261 285h224l-413 -439l449 -658h-217l-382 572l-92 -103v-469h-198z" />
<glyph unicode="l" horiz-adv-x="533" d="M168 0v1486l197 16v-1502h-197z" />
<glyph unicode="m" horiz-adv-x="1760" d="M153 0v1097h180l19 -120q40 81 115 115t190 34q113 0 180 -36t98 -118q80 156 316 156q77 0 131.5 -8.5t95.5 -31.5t65.5 -55t39.5 -85.5t20.5 -117.5t5.5 -157v-673h-197v666q0 113 3 172q0 36 -5 58.5t-22 46.5t-56 35.5t-100 11.5q-67 0 -112.5 -8.5t-73 -23 t-42.5 -41.5t-19.5 -56.5t-4.5 -76.5q0 -22 1.5 -78.5t1.5 -91.5v-614h-197v702v14q0 68 -1 97.5t-7.5 69t-19 53.5t-38.5 30t-63 20t-94 4q-36 0 -68.5 -4.5t-62.5 -14.5t-49 -29t-20 -45q-13 -133 -13 -292v-605h-197z" />
<glyph unicode="n" horiz-adv-x="1171" d="M153 0v1097h180l19 -123q26 82 115 118t212 36q58 0 103 -7t80 -23.5t60.5 -37.5t43 -55.5t28.5 -70.5t17 -90t8 -107.5t2 -127.5v-609h-197v664q0 64 -0.5 102.5t-4 77.5t-7.5 58.5t-14.5 39t-21.5 26.5t-32 13.5t-42 7.5t-56 1q-76 0 -129.5 -8.5t-87.5 -23.5 t-52.5 -42t-25.5 -58.5t-7 -77.5q0 -26 3 -90.5t3 -104.5v-585h-197z" />
<glyph unicode="o" horiz-adv-x="1178" d="M119 558q0 97 2.5 162t11.5 127.5t22.5 101t39 73t57.5 52.5t81.5 31.5t108 18t139.5 4.5t139.5 -4.5t108 -18t81.5 -31.5t57.5 -52.5t39 -73t22.5 -101t11.5 -127.5t2.5 -162q0 -130 -3.5 -203t-19.5 -147.5t-44.5 -109.5t-82 -65t-127.5 -39t-186 -9q-111 0 -185 9 t-127.5 39.5t-81.5 65t-44 109t-19.5 147.5t-3.5 203zM316 546q0 -188 11 -331q0 -53 58.5 -72.5t196.5 -19.5q142 3 197.5 21t55.5 71q11 143 11 331q0 62 -5 177.5t-5 171.5q0 17 -5.5 31t-18 23.5t-25 16.5t-35 11t-38 7t-44 4t-44.5 1h-45h-45q-16 0 -44.5 -1t-44 -4 t-38 -7t-35 -11t-25 -16.5t-18 -23.5t-5.5 -31q0 -56 -5 -171.5t-5 -177.5z" />
<glyph unicode="p" horiz-adv-x="1188" d="M153 -387v1484h179l19 -121q61 152 320 152q53 0 96.5 -4.5t79 -16.5t63 -26t49 -38.5t36.5 -49.5t25.5 -63.5t17 -75.5t10 -90.5t4.5 -103t1 -119.5q0 -92 -3.5 -156t-13 -127t-28 -103t-48 -75.5t-72.5 -54.5t-101 -29.5t-135 -10.5q-264 0 -302 118v-475zM344 294 q0 -61 19.5 -96t78 -55.5t164.5 -20.5q146 0 197 24q55 26 55 269q0 37 -1 102t-1 89q-2 201 -6 266q-4 70 -52.5 94t-191.5 24q-181 0 -232 -58q-28 -41 -28 -239q0 -40 1.5 -119t1.5 -114t-2.5 -90t-2.5 -76z" />
<glyph unicode="q" horiz-adv-x="1180" d="M117 557q0 84 2 143t9 119.5t19 100t31.5 77t47.5 60t67.5 40t90.5 24.5t116 7q263 0 318 -152l19 121h180v-1469l-197 -15v490q-44 -118 -304 -118q-83 0 -145.5 15t-105 36.5t-71 65.5t-44 82t-23 108.5t-9 121.5t-1.5 143zM311 698q0 -303 9 -465q3 -49 23.5 -71.5 t69 -31t151.5 -8.5q145 0 197.5 27t58.5 103v592q0 82 -58 114t-200 32q-144 0 -195 -27q-56 -30 -56 -265z" />
<glyph unicode="r" horiz-adv-x="726" d="M152 0v1097h179l20 -123q31 72 94 111.5t151 39.5q22 0 45 -3l-8 -167q-38 5 -72 5q-71 0 -115 -14t-66.5 -48t-30 -77.5t-7.5 -116.5q0 -41 3.5 -120t3.5 -113v-471h-197z" />
<glyph unicode="s" horiz-adv-x="1075" d="M122 287l155 40q9 -114 21 -144q18 -41 75 -52q43 -9 181 -9q83 0 123.5 7.5t54.5 28.5q40 33 40 225q0 29 -12 49.5t-29 31t-47.5 18t-55 10t-64.5 6.5t-64 7q-73 8 -119 15.5t-93 22.5t-73.5 37t-48.5 57t-31 84t-9 117q0 72 15 122t44 83t79.5 51.5t113.5 26t154 7.5 q57 0 93.5 -1.5t80 -7t70.5 -15.5t54.5 -28t42.5 -44.5t24.5 -64.5t9.5 -87l-134 -41q-4 39 -7.5 61.5t-15.5 41.5t-25 27t-44.5 14t-63.5 7t-92 1q-128 0 -173.5 -25.5t-45.5 -83.5v-102q0 -66 39.5 -83.5t211.5 -39.5q18 -3 27 -4q69 -8 109.5 -15t85.5 -18.5t68.5 -27 t47 -39.5t34 -59t17 -81t6.5 -109q0 -96 -21 -157.5t-69.5 -97.5t-118 -50t-175.5 -14q-62 0 -99.5 1t-86.5 5t-78 12.5t-62.5 23t-52.5 37t-36 53.5t-24 73.5t-7 96.5z" />
<glyph unicode="t" horiz-adv-x="720" d="M62 985v112h149v312l196 16v-328h202v-112h-202v-680q0 -108 10.5 -140t57.5 -32q46 0 126 6l-4 -140q-84 -14 -152 -14q-73 0 -120.5 16t-71.5 51t-33 77.5t-9 108.5v747h-149z" />
<glyph unicode="u" horiz-adv-x="1170" d="M140 454v643h197v-637q0 -22 -0.5 -59.5t-0.5 -52.5q0 -53 2 -83t10.5 -59t22.5 -42.5t42 -24.5t64.5 -14t93.5 -3q64 0 109 9t71 23.5t39.5 39.5t17.5 49t4 60q0 12 -0.5 39t-0.5 41v714h199v-1098h-182l-18 141q-26 -79 -113.5 -117t-213.5 -38q-86 0 -145 17 t-98.5 49.5t-61 91t-30 131t-8.5 180.5z" />
<glyph unicode="v" horiz-adv-x="1060" d="M60 1097h185l268 -926l266 926h203l-363 -1097h-214z" />
<glyph unicode="w" horiz-adv-x="1580" d="M68 1097h189l197 -864l240 864h177l225 -864l199 864h197l-286 -1097h-182l-239 834l-227 -834h-202z" />
<glyph unicode="x" horiz-adv-x="1072" d="M81 0l346 565l-338 532h206l239 -409l240 409h203l-333 -534l342 -563h-207l-245 430l-248 -430h-205z" />
<glyph unicode="y" horiz-adv-x="1080" d="M51 1097h199l202 -557q55 -152 102 -287q33 121 97 334l151 510h201l-346 -1044q-13 -38 -27.5 -91.5t-24 -86.5t-24 -72.5t-31.5 -63t-42 -45t-60 -31t-81 -9.5q-119 0 -216 23l30 152q19 -2 51 -7.5t55.5 -8.5t43.5 -3q64 0 97 44t34 163z" />
<glyph unicode="z" horiz-adv-x="943" d="M104 0v141l513 819h-467l-9 137h664l9 -137l-499 -825h505l-9 -135h-707z" />
<glyph unicode="{" horiz-adv-x="637" d="M60 664v194q84 0 119 118q16 51 36 212q0 4 1 8q6 45 10 73t13.5 74t20 76.5t29 70.5t40.5 66.5t54 55t71 45t90.5 27t111.5 10.5v-164q-102 0 -153.5 -42t-73.5 -154q-20 -67 -32.5 -149t-19 -139t-19.5 -113t-42 -95t-78 -60q48 -19 79 -63.5t45.5 -106t21.5 -120.5 t14.5 -132t16.5 -115q20 -130 75 -189.5t167 -59.5v-164q-172 0 -273.5 66t-143.5 210q-10 35 -15 111.5t-10.5 148.5t-18.5 142.5t-47 114t-89 43.5z" />
<glyph unicode="|" horiz-adv-x="510" d="M169 -98v1814h175v-1814h-175z" />
<glyph unicode="}" horiz-adv-x="648" d="M-12 -8q97 0 147 38.5t76 140.5q18 56 28 157.5t16.5 180t36.5 151.5t85 98q-34 17 -58.5 50.5t-38 83t-20.5 93t-13 106.5q-5 73 -10.5 123t-14.5 99.5t-21.5 81t-31 60t-44 43.5t-59 23.5t-77.5 8.5v164q92 0 160.5 -22t114 -59.5t77.5 -101t50.5 -133.5t33.5 -171 l19 -125q18 -120 47 -172t94 -52v-194q-70 0 -100 -52.5t-43 -169.5l-12 -138q-7 -62 -14 -105.5t-21.5 -97.5t-34 -90t-52.5 -73.5t-76 -59.5t-105 -36t-139 -14v164z" />
<glyph unicode="~" horiz-adv-x="1015" d="M105 945q50 187 209 187q67 0 129 -18.5t100.5 -40.5t84.5 -40.5t85 -18.5q82 0 185 83l34 -50q-51 -215 -227 -215q-53 0 -114 21t-107 46t-102.5 46t-101.5 21q-78 0 -146 -63z" />
<glyph unicode="&#xa1;" horiz-adv-x="528" d="M117 1386q0 66 40 111t108 45q63 0 106 -45t43 -111q0 -68 -41 -112t-108 -44q-63 0 -105.5 45.5t-42.5 110.5zM155 126q0 120 20.5 334t37 340t24.5 182q17 13 42 13q18 -32 55.5 -294.5t37.5 -450.5q0 -168 -12 -220t-62 -63q-90 0 -131 58q-12 39 -12 101z" />
<glyph unicode="&#xa2;" horiz-adv-x="1067" d="M115 647v82q0 96 0.5 139.5t3 113.5t10.5 98t20.5 73.5t34.5 62t51.5 41t71.5 32t95 14.5t123 8v194h73v-195q157 -3 244.5 -33.5t122 -89t34.5 -159.5q0 -28 -2 -67t-2 -50h-188q0 28 1 70t1 56q0 45 -5.5 67.5t-30 37.5t-62 18.5t-113.5 4.5v-905q68 -4 88 -4 q49 0 72.5 17t36 71.5t12.5 165.5h188q2 -34 2 -36q0 -67 -5 -113.5t-19 -86.5t-36 -65t-59 -44t-85 -29.5t-116 -15.5q-50 -4 -79 -4v-188h-73v188q-241 4 -327 84q-53 48 -68 152t-15 295zM307 590q0 -221 15 -270q11 -37 54 -47.5t149 -10.5v903q-15 0 -39.5 0.5 t-34.5 0.5q-35 0 -55 -2t-37.5 -11t-25.5 -21.5t-14 -40.5t-7.5 -61t-1.5 -88q0 -48 -1.5 -169.5t-1.5 -182.5z" />
<glyph unicode="&#xa3;" horiz-adv-x="1409" d="M105 0v220q95 7 120.5 28t28.5 93q3 70 5 361h-152v146h148q-16 206 -16 264q0 94 14 162.5t46 116t73.5 77.5t107.5 46t135.5 22t169.5 6q74 0 131.5 -2.5t105.5 -12.5t83 -17t63 -29.5t46 -36t32 -50t21.5 -58.5t13.5 -74.5t8 -84t6 -100.5l-177 -23q0 4 -12 217 q-9 53 -67 67.5t-230 14.5q-102 0 -170.5 -6t-108.5 -16t-60 -30t-25.5 -40t-5.5 -54q0 -53 2.5 -111.5t7.5 -133.5t7 -115h550v-146h-547q-3 -246 -24 -457q12 -37 92 -51.5t255 -14.5q186 0 264.5 14.5t89.5 62.5l15 210l155 -28q-4 -84 -7.5 -132.5t-14 -101t-22.5 -78.5 t-38.5 -53.5t-56 -38t-81 -20t-108 -11.5t-142.5 -2h-38q-87 0 -128 0.5t-104 4t-92.5 12.5t-64 24t-51.5 39.5t-25 58.5q-24 -139 -228 -139z" />
<glyph unicode="&#xa4;" horiz-adv-x="1123" d="M123 287l139 170q-117 111 -117 307q0 195 117 306l-138 171l63 70l150 -181q89 59 225 59q135 0 224 -56l152 177l64 -70l-138 -169q120 -113 120 -306q0 -194 -120 -308l139 -170l-64 -69l-150 179q-91 -48 -225 -48q-140 0 -228 49l-150 -180zM250 773 q0 -167 75 -246.5t239 -79.5q313 0 313 325q0 166 -74 246t-239 80q-314 0 -314 -325z" />
<glyph unicode="&#xa5;" horiz-adv-x="1147" d="M-1 1490h221l325 -763l331 763h214l-451 -972v-518h-202v518zM125 518v113h838v-113h-838zM172 261v86h744v-86h-744z" />
<glyph unicode="&#xa6;" horiz-adv-x="510" d="M162 -249v812h187v-812h-187zM162 819v812h187v-812h-187z" />
<glyph unicode="&#xa7;" horiz-adv-x="1062" d="M131 210h172q0 -55 3.5 -91t17 -61t27.5 -38t47.5 -20t62.5 -8.5t87 -1.5q45 0 73.5 2.5t52 11.5t36 22t21 38t11 56t2.5 78q0 102 -31 148.5t-111 56.5q-99 11 -159 21t-117 28t-87 41t-53.5 60.5t-31.5 87t-8 121.5q0 156 96 231q-94 85 -94 289q0 100 20 164t68 101.5 t118 51.5t181 14q112 0 183 -15.5t119 -55.5t68 -107t20 -172h-171q0 75 -7.5 115t-33.5 65t-65.5 32t-114.5 7q-41 0 -62.5 -1t-48.5 -4t-40 -10.5t-27.5 -20.5t-20.5 -33.5t-10 -48.5t-4 -67v-20q0 -15 -0.5 -40t-0.5 -34q0 -79 43.5 -101.5t252.5 -58.5q69 -12 113 -24.5 t83 -34.5t60.5 -54t34 -80.5t14.5 -116.5q0 -170 -102 -244q99 -85 99 -294q0 -83 -14.5 -140.5t-43 -96t-77.5 -60t-109.5 -30t-148.5 -8.5q-111 0 -181.5 14.5t-120 54t-70.5 107t-21 174.5zM322 775q0 -127 38 -156.5t213 -54.5q85 -12 138 -21q32 24 32 142 q0 94 -19.5 131.5t-71.5 53.5q-72 22 -141 37t-112 22t-52 10q-25 -95 -25 -164z" />
<glyph unicode="&#xa8;" horiz-adv-x="982" d="M117 244q0 62 36 94.5t95 32.5t94 -32t35 -95t-35 -95t-94 -32t-95 32.5t-36 94.5zM609 244q0 62 36 94.5t95 32.5t94 -32t35 -95t-35 -95t-94 -32t-95 32.5t-36 94.5z" />
<glyph unicode="&#xa9;" horiz-adv-x="1734" d="M94 762q0 149 43.5 275.5t118 216.5t174 153.5t212 94t230.5 30.5q120 0 232.5 -31t211.5 -95t173 -154.5t116.5 -216.5t42.5 -274q0 -144 -42.5 -268t-115.5 -213.5t-170.5 -153t-209 -95t-229.5 -31.5q-124 0 -239 31t-215 94t-174 152.5t-116.5 214t-42.5 270.5z M207 760q0 -158 55.5 -287t148 -211t208.5 -126t242 -44q134 0 254.5 44t214.5 125.5t149.5 210.5t55.5 288q0 163 -57 295t-151.5 214t-212 125.5t-244.5 43.5q-101 0 -196.5 -26.5t-180.5 -82.5t-148.5 -134.5t-100.5 -190.5t-37 -244zM468 865q0 94 5 156t19.5 118 t40.5 88.5t69.5 56.5t103.5 33.5t146 9.5q93 0 149 -4.5t106 -21t75 -42t43.5 -75.5t24 -113.5t5.5 -161.5h-126q-2 30 -2 83v56q0 36 -2 56.5t-10.5 42t-24 31.5t-43.5 19t-68 12t-100 3q-66 0 -108.5 -2t-73.5 -9.5t-46.5 -16t-24.5 -28t-11 -38.5t-2 -54v-279 q0 -66 -3.5 -155t-3.5 -115q0 -58 8.5 -89t39.5 -52t81.5 -27t143.5 -6q44 0 76 2t58 5t43.5 11.5t30 16t19.5 24t11.5 30t6 40t2 47t1.5 58.5t2 69h126q0 -75 -1.5 -122t-9 -95t-18.5 -74.5t-33 -52.5t-50 -37.5t-73.5 -21.5t-98.5 -12.5t-129 -2.5q-55 0 -97 3t-78.5 13 t-62.5 21t-47.5 35t-35 47t-24 65.5t-16 80.5t-8.5 103t-4 123t-1 148z" />
<glyph unicode="&#xaa;" horiz-adv-x="998" d="M158 797q0 58 32.5 98t96.5 63t145 32.5t190 9.5q12 0 36 -0.5t35 -0.5v181v11q0 30 -0.5 42.5t-6 30t-15.5 23.5t-30 13.5t-49.5 9t-74.5 1.5q-56 0 -91.5 -4.5t-55.5 -15t-28 -26.5t-9 -38.5t1 -51.5l-123 4q-1 10 -1 28q0 57 15 97t39.5 63t67.5 36t86 16.5t109 3.5 q96 0 155.5 -14t99.5 -51t56 -97.5t16 -156.5v-595h-128l-25 128q-25 -85 -87.5 -112.5t-185.5 -27.5q-158 0 -214 66t-56 234zM306 739q0 -16 2 -40.5t5.5 -33.5t11 -22.5t17 -17.5t25.5 -9.5t36 -6.5t48 -1q63 0 107.5 10.5t70 26t40 43t19 53t5.5 63.5v97 q-164 -2 -246.5 -13t-111.5 -32.5t-29 -63.5v-53z" />
<glyph unicode="&#xab;" horiz-adv-x="1234" d="M80 677v98l475 424l95 -113l-421 -360l421 -360l-95 -113zM480 677v98l474 424l95 -113l-421 -360l421 -360l-95 -113z" />
<glyph unicode="&#xac;" horiz-adv-x="1128" d="M102 647v150h924v-535h-149v385h-775z" />
<glyph unicode="&#xad;" horiz-adv-x="1050" d="M134 549v179h786v-179h-786z" />
<glyph unicode="&#xae;" horiz-adv-x="1734" d="M94 762q0 149 43.5 275.5t118 216.5t174 153.5t212 94t230.5 30.5q120 0 232.5 -31t211.5 -95t173 -154.5t116.5 -216.5t42.5 -274q0 -146 -43 -271t-117.5 -214t-173.5 -152t-212 -93.5t-232 -30.5q-153 0 -292 51t-247.5 145t-172.5 241t-64 325zM207 760 q0 -160 56.5 -290t151 -211t212 -124t245.5 -43q132 0 251 45t211 127.5t146.5 211t54.5 284.5q0 163 -57 295t-151.5 214t-212 125.5t-244.5 43.5q-101 0 -196.5 -26.5t-180.5 -82.5t-148.5 -134.5t-100.5 -190.5t-37 -244zM555 267v1021h324q109 0 172 -9.5t108 -39 t62 -80.5t20 -138q0 -221 -170 -233q75 -4 118.5 -51t43.5 -128v-341h-134q0 35 2 114.5t2 118.5q0 201 -45 220q-30 13 -112 13h-264q0 -78 0.5 -233.5t0.5 -233.5h-128zM682 832h197q76 0 115.5 5t65.5 25.5t33.5 52t10.5 92.5q0 44 -4.5 74.5t-18.5 50t-25.5 30t-42 15.5 t-50.5 5.5t-67 0.5h-19h-195v-351z" />
<glyph unicode="&#xaf;" horiz-adv-x="846" d="M129 711v127h597v-127h-597z" />
<glyph unicode="&#xb0;" horiz-adv-x="829" d="M111 1322q0 120 91.5 197.5t216.5 77.5t216 -78.5t91 -197.5t-90 -197t-217 -78t-217.5 78t-90.5 198zM289 1321q0 -68 35.5 -117t94.5 -49t95.5 49t36.5 117t-36.5 116.5t-96.5 48.5q-58 0 -93.5 -48.5t-35.5 -116.5z" />
<glyph unicode="&#xb1;" horiz-adv-x="1128" d="M102 0v150h924v-150h-924zM102 647v150h387v389h150v-389h387v-150h-387v-385h-150v385h-387z" />
<glyph unicode="&#xb2;" horiz-adv-x="896" d="M110 248q0 184 36.5 271.5t140.5 160.5q53 36 119.5 76.5t99.5 60.5t70.5 51.5t54 62.5t27.5 79t11 115q0 34 -0.5 53.5t-3 44.5t-8 38t-14.5 29t-23.5 24t-34.5 15.5t-47.5 10t-62.5 2.5q-67 0 -105 -6t-68 -27t-43 -59t-18 -103l-119 28q-1 7 -1 21q0 138 86 198 t256 60q100 0 162.5 -13t108.5 -49t65.5 -100.5t19.5 -166.5q0 -111 -27 -186.5t-77 -124t-138 -95.5q-22 -13 -61 -35t-57 -32.5t-49 -30t-45.5 -32.5t-36 -33t-31.5 -39t-21 -43.5t-15.5 -53t-5.5 -61.5h549v-111h-694z" />
<glyph unicode="&#xb3;" horiz-adv-x="923" d="M90 468q0 30 1 49l125 18q4 -60 7 -83q7 -55 56 -75.5t161 -20.5q61 0 97.5 2t64.5 15t40.5 23.5t19.5 45t8 61t1 89.5q0 47 -5.5 80t-12.5 56.5t-29 38t-37.5 23.5t-56.5 12.5t-68.5 4t-89.5 0.5h-3l-6 111q96 0 126 1q65 2 101.5 14t52.5 49t19 70t3 112v8v6 q0 63 -15 93.5t-61.5 45.5t-142.5 15q-119 0 -164.5 -19t-49.5 -71l-7 -86l-121 24v22q0 70 12.5 111t50.5 71t106.5 42t182.5 14q183 0 266.5 -69.5t83.5 -222.5q0 -253 -161 -284q-4 -1 -5 -1q171 -35 173 -274q0 -103 -25 -171t-77.5 -105t-120.5 -51.5t-169 -14.5 q-84 0 -141 9.5t-102 33t-66.5 67.5t-21.5 111z" />
<glyph unicode="&#xb4;" horiz-adv-x="670" d="M109 1308q257 266 296 297q40 35 84 35q47 0 75 -29.5t28 -70.5q0 -31 -18 -60t-53 -44q-11 -5 -110 -42t-192 -72l-93 -35z" />
<glyph unicode="&#xb5;" horiz-adv-x="373" />
<glyph unicode="&#xb6;" horiz-adv-x="1060" d="M60 1190q0 183 110.5 257t337.5 74h387v-1521h-153v844h-171v-844h-154v845q-173 0 -265 86t-92 259z" />
<glyph unicode="&#xb7;" horiz-adv-x="526" d="M125 682q0 68 37.5 111t102.5 43q61 0 100.5 -44t39.5 -110q0 -68 -37.5 -111t-102.5 -43q-60 0 -100 44.5t-40 109.5z" />
<glyph unicode="&#xb8;" horiz-adv-x="723" d="M124 -470l47 90q111 -50 162 -50q59 0 59 54q0 87 -138 87q8 35 37 145l38 144h109l-49 -168q56 -8 91 -17.5t67 -30.5t46.5 -57t14.5 -91q0 -90 -71 -139t-174 -49q-143 0 -239 82z" />
<glyph unicode="&#xb9;" horiz-adv-x="510" d="M66 1235v74q127 5 174 116h124v-1185h-150v995h-148z" />
<glyph unicode="&#xba;" horiz-adv-x="953" d="M138 895q0 96 4 155t17.5 111.5t35 79t61.5 46.5t92.5 26t132.5 6h2q80 0 132.5 -6t92.5 -26t61.5 -46.5t35 -79t17.5 -111.5t4 -155q0 -70 -1.5 -115.5t-7 -92.5t-15.5 -74.5t-28 -55t-42.5 -41.5t-61 -25.5t-82 -15.5t-107.5 -4q-61 0 -106.5 4t-82 15.5t-61 25.5 t-42 41.5t-27.5 55t-15.5 74.5t-7 92.5t-1.5 115.5zM286 892q0 -121 8 -249q1 -39 42 -52.5t146 -15.5q105 2 146 15.5t42 52.5q8 128 8 249q0 44 -4 128t-4 123q0 30 -28 47t-65.5 21.5t-94.5 4.5t-94.5 -4.5t-65.5 -21.5t-28 -47q0 -39 -4 -123t-4 -128z" />
<glyph unicode="&#xbb;" horiz-adv-x="1234" d="M130 366l422 360l-422 360l96 113l474 -424v-98l-474 -424zM530 366l420 360l-420 360l94 113l475 -424v-98l-475 -424z" />
<glyph unicode="&#xbc;" horiz-adv-x="829" d="M75 734v71h620v-71h-620zM114 220l231 396h112v-396h102v-68h-102v-152h-91v152h-214zM194 220h172v324q-55 -106 -172 -324zM268 1378v53q39 0 60.5 18.5t21.5 49.5h78v-601h-91v480h-69z" />
<glyph unicode="&#xbd;" horiz-adv-x="828" d="M49 734v71h620v-71h-620zM161 0v75q0 48 17 84t43.5 57.5t59 39.5t65 37.5t59 43t43.5 63.5t17 94q0 57 -17.5 68t-104.5 11q-29 0 -42.5 -1.5t-28 -8t-19.5 -22.5t-5 -43l3 -35l-83 7q-6 37 -6 52q0 69 51 96.5t144 27.5q112 0 156 -31t44 -131q0 -74 -19 -122.5 t-51.5 -75t-67 -44t-76 -44t-68.5 -60.5q-23 -30 -23 -66h295v-72h-386zM232 1378v53q39 0 60.5 18.5t21.5 49.5h78v-601h-91v480h-69z" />
<glyph unicode="&#xbe;" horiz-adv-x="868" d="M79 733v71h620v-71h-620zM117 220l231 396h112v-396h102v-68h-102v-152h-91v152h-214zM197 220h172v324q-55 -106 -172 -324zM222 1014q0 12 3 49h67q0 -52 5 -62q20 -21 83 -22q72 0 94.5 12.5t22.5 55.5q0 27 -0.5 46t-5 34.5t-7 24.5t-13 16t-17 10t-25.5 5t-31 2h-41 l-3 53q2 0 12.5 -0.5t14.5 -0.5q73 0 94 16t21 53q0 32 -1 46.5t-5.5 30t-15.5 21t-28 9t-46 3.5q-63 0 -85.5 -8t-22.5 -31l2 -46h-59q-8 26 -8 52q0 55 38.5 76.5t139.5 21.5q91 0 131 -35.5t40 -116.5q0 -37 -11 -63t-28 -37t-29.5 -14.5t-23.5 -4.5q12 -2 24 -7t29 -19 t28 -44t11 -72q0 -86 -43.5 -119.5t-133.5 -33.5q-96 0 -136.5 19.5t-40.5 79.5z" />
<glyph unicode="&#xbf;" horiz-adv-x="767" d="M66 338q0 93 47.5 180t133.5 186q12 14 39 47t33.5 42t24.5 33t22 33.5t14.5 30.5t13.5 38t7.5 40t7.5 52q17 0 51.5 -0.5t50.5 -0.5q0 -62 -9.5 -115.5t-20 -90t-39.5 -88.5t-47 -79.5t-63 -93.5q-39 -56 -54.5 -98.5t-15.5 -103.5q0 -89 51 -136.5t150 -47.5 q68 0 239 57l39 -164q-168 -81 -303 -81q-181 0 -276.5 91.5t-95.5 268.5zM324 1379q0 66 39 110t103 44q62 0 102 -45.5t40 -108.5q0 -67 -38.5 -110.5t-102.5 -43.5q-63 0 -103 43t-40 111z" />
<glyph unicode="&#xc0;" horiz-adv-x="1296" d="M175 1889q0 41 28 70.5t75 29.5q44 0 84 -35q17 -14 91 -88t139 -141l66 -68l-17 -21l-93 35q-93 35 -192 72t-110 42q-35 15 -53 44t-18 60zM54 0l457 1490h271l446 -1490h-206l-113 381h-551l-109 -381h-195zM401 525h466l-126 447l-104 366q-58 -207 -102 -356z" />
<glyph unicode="&#xc1;" horiz-adv-x="1296" d="M624 1657q257 266 296 297q40 35 84 35q47 0 75 -29.5t28 -70.5q0 -31 -18 -60t-53 -44q-11 -5 -110 -42t-192 -72l-93 -35zM54 0l457 1490h271l446 -1490h-206l-113 381h-551l-109 -381h-195zM401 525h466l-126 447l-104 366q-58 -207 -102 -356z" />
<glyph unicode="&#xc2;" horiz-adv-x="1296" d="M361 1690l192 309q35 52 94 52t94 -52l192 -309l-55 -54l-231 236l-231 -236zM54 0l457 1490h271l446 -1490h-206l-113 381h-551l-109 -381h-195zM401 525h466l-126 447l-104 366q-58 -207 -102 -356z" />
<glyph unicode="&#xc3;" horiz-adv-x="1296" d="M308 1700q49 156 209 156q53 0 99.5 -17t83.5 -34t66 -17q82 0 185 83l34 -50q-51 -185 -227 -185q-53 0 -143 42t-132 42q-78 0 -146 -63zM54 0l457 1490h271l446 -1490h-206l-113 381h-551l-109 -381h-195zM401 525h466l-126 447l-104 366q-58 -207 -102 -356z" />
<glyph unicode="&#xc4;" horiz-adv-x="1296" d="M265 1763q0 62 36 94.5t95 32.5t94 -32t35 -95t-35 -95t-94 -32t-95 32.5t-36 94.5zM757 1763q0 62 36 94.5t95 32.5t94 -32t35 -95t-35 -95t-94 -32t-95 32.5t-36 94.5zM54 0l457 1490h271l446 -1490h-206l-113 381h-551l-109 -381h-195zM401 525h466l-126 447l-104 366 q-58 -207 -102 -356z" />
<glyph unicode="&#xc5;" horiz-adv-x="1296" d="M390 1751q0 113 71.5 183.5t183.5 70.5t185 -71.5t73 -182.5q0 -113 -72 -183.5t-184 -70.5q-108 0 -182.5 69t-74.5 185zM530 1751q0 -137 128 -137q43 0 72.5 42t29.5 93q0 65 -33.5 101.5t-95.5 36.5q-43 0 -72 -42t-29 -94zM54 0l457 1490h271l446 -1490h-206 l-113 381h-551l-109 -381h-195zM401 525h466l-126 447l-104 366q-58 -207 -102 -356z" />
<glyph unicode="&#xc6;" horiz-adv-x="1967" d="M20 0l886 1490h931v-167h-655v-459h544v-167h-544v-530h674v-167h-875v381h-548l-222 -381h-191zM518 523h463v414q0 68 0.5 204.5t0.5 200.5l-195 -347z" />
<glyph unicode="&#xc7;" horiz-adv-x="1360" d="M422 -475l47 90q111 -50 162 -50q59 0 59 54q0 87 -138 87q8 35 37 145l38 144h109l-49 -168q56 -8 91 -17.5t67 -30.5t46.5 -57t14.5 -91q0 -90 -71 -139t-174 -49q-143 0 -239 82zM140 748q0 112 1 180t6 148t12.5 124t24 96.5t37.5 78t55 55.5t74.5 41.5t98.5 23.5 t124.5 15t154.5 3q91 0 155 -6.5t120 -25t92 -49t63.5 -79.5t42.5 -115.5t22 -159.5l-175 -34q-5 51 -9 85t-11.5 67t-12 53.5t-18.5 40t-22.5 29.5t-31.5 19t-38.5 12.5t-51 6.5t-61.5 3h-76q-70 0 -114.5 -1.5t-89 -7t-70 -16t-47.5 -28t-31.5 -43t-11.5 -61.5 q-9 -264 -9 -539q0 -192 9 -375q5 -57 32.5 -89t107 -51t225.5 -19q78 0 131 4.5t89 21t55 30t30.5 52.5t15 65.5t7.5 90.5q1 14 1.5 22t1.5 21.5t2 24.5l174 -26q-5 -96 -17 -163.5t-35.5 -120.5t-57.5 -85.5t-87.5 -53.5t-120 -29t-160.5 -8q-90 0 -161 4.5t-129.5 20 t-102 30t-77 48.5t-56 61t-38 82.5t-23.5 97.5t-12.5 122t-5.5 140t-1 166z" />
<glyph unicode="&#xc8;" horiz-adv-x="1148" d="M137 1889q0 41 28 70.5t75 29.5q44 0 84 -35q17 -14 91 -88t139 -141l66 -68l-17 -21l-93 35q-93 35 -192 72t-110 42q-35 15 -53 44t-18 60zM171 0v1490h835l20 -154h-652v-479h557v-162h-557v-542h661l-20 -153h-844z" />
<glyph unicode="&#xc9;" horiz-adv-x="1148" d="M586 1657q257 266 296 297q40 35 84 35q47 0 75 -29.5t28 -70.5q0 -31 -18 -60t-53 -44q-11 -5 -110 -42t-192 -72l-93 -35zM171 0v1490h835l20 -154h-652v-479h557v-162h-557v-542h661l-20 -153h-844z" />
<glyph unicode="&#xca;" horiz-adv-x="1148" d="M317 1690l192 309q35 52 94 52t94 -52l192 -309l-55 -54l-231 236l-231 -236zM171 0v1490h835l20 -154h-652v-479h557v-162h-557v-542h661l-20 -153h-844z" />
<glyph unicode="&#xcb;" horiz-adv-x="1148" d="M227 1763q0 62 36 94.5t95 32.5t94 -32t35 -95t-35 -95t-94 -32t-95 32.5t-36 94.5zM719 1763q0 62 36 94.5t95 32.5t94 -32t35 -95t-35 -95t-94 -32t-95 32.5t-36 94.5zM171 0v1490h835l20 -154h-652v-479h557v-162h-557v-542h661l-20 -153h-844z" />
<glyph unicode="&#xcc;" horiz-adv-x="547" d="M-193 1889q0 41 28 70.5t75 29.5q44 0 84 -35q17 -14 91 -88t139 -141l66 -68l-17 -21l-93 35q-93 35 -192 72t-110 42q-35 15 -53 44t-18 60zM172 0v1490h203v-1490h-203z" />
<glyph unicode="&#xcd;" horiz-adv-x="547" d="M257 1657q257 266 296 297q40 35 84 35q47 0 75 -29.5t28 -70.5q0 -31 -18 -60t-53 -44q-11 -5 -110 -42t-192 -72l-93 -35zM172 0v1490h203v-1490h-203z" />
<glyph unicode="&#xce;" horiz-adv-x="547" d="M-13 1690l192 309q35 52 94 52t94 -52l192 -309l-55 -54l-231 236l-231 -236zM172 0v1490h203v-1490h-203z" />
<glyph unicode="&#xcf;" horiz-adv-x="547" d="M-103 1763q0 62 36 94.5t95 32.5t94 -32t35 -95t-35 -95t-94 -32t-95 32.5t-36 94.5zM389 1763q0 62 36 94.5t95 32.5t94 -32t35 -95t-35 -95t-94 -32t-95 32.5t-36 94.5zM172 0v1490h203v-1490h-203z" />
<glyph unicode="&#xd0;" horiz-adv-x="1441" d="M78 689v137h93v664h516q126 0 213 -10.5t155.5 -39t109.5 -71.5t67.5 -114.5t36 -160.5t9.5 -218q0 -137 -1.5 -225.5t-9.5 -181t-17 -146.5t-33.5 -110.5t-48 -84t-71.5 -56.5t-94 -39t-124.5 -20t-154 -11.5t-191.5 -1.5h-362v689h-93zM374 153h240q86 0 134 1.5 t104 8.5t82.5 18.5t57.5 36t43 56t24 83t15 113.5t3 150v253q0 92 -0.5 132.5t-7 101.5t-18 83.5t-36.5 57.5t-58.5 44.5t-88 24t-121.5 17t-163 2.5h-210v-510h268v-137h-268v-536z" />
<glyph unicode="&#xd1;" horiz-adv-x="1441" d="M382 1700q49 156 209 156q53 0 99.5 -17t83.5 -34t66 -17q82 0 185 83l34 -50q-51 -185 -227 -185q-53 0 -143 42t-132 42q-78 0 -146 -63zM171 0v1490h205l716 -1193v1193h178v-1490h-211l-710 1177v-1177h-178z" />
<glyph unicode="&#xd2;" d="M249 1889q0 41 28 70.5t75 29.5q44 0 84 -35q17 -14 91 -88t139 -141l66 -68l-17 -21l-93 35q-93 35 -192 72t-110 42q-35 15 -53 44t-18 60zM137 812q0 148 8 246t31.5 182t62 132t105 82.5t155 47t216.5 12.5q121 0 207 -12t152.5 -42.5t107 -76t66.5 -119.5 t35.5 -165.5t9.5 -222.5q0 -370 -11 -487q-19 -200 -92 -286q-77 -92 -262 -116q-88 -11 -213 -11q-87 0 -154.5 4t-124.5 19.5t-97.5 28.5t-73 49.5t-53.5 63t-36 88t-22 105t-11.5 134.5t-5 156t-0.5 188zM341 725q0 -282 15 -386q24 -156 91 -180q50 -29 268 -29t268 29 q19 7 34.5 23t26 43t18.5 54.5t13 70.5t8 77.5t4 88t1.5 88.5t0.5 93q0 202 -3 400q-2 60 -6.5 95t-19 68.5t-37.5 49.5t-65.5 29t-99.5 17t-143 4t-143 -4t-99.5 -17t-65.5 -29t-37.5 -49.5t-19 -68.5t-6.5 -95q-3 -185 -3 -372z" />
<glyph unicode="&#xd3;" d="M698 1657q257 266 296 297q40 35 84 35q47 0 75 -29.5t28 -70.5q0 -31 -18 -60t-53 -44q-11 -5 -110 -42t-192 -72l-93 -35zM137 812q0 148 8 246t31.5 182t62 132t105 82.5t155 47t216.5 12.5q121 0 207 -12t152.5 -42.5t107 -76t66.5 -119.5t35.5 -165.5t9.5 -222.5 q0 -370 -11 -487q-19 -200 -92 -286q-77 -92 -262 -116q-88 -11 -213 -11q-87 0 -154.5 4t-124.5 19.5t-97.5 28.5t-73 49.5t-53.5 63t-36 88t-22 105t-11.5 134.5t-5 156t-0.5 188zM341 725q0 -282 15 -386q24 -156 91 -180q50 -29 268 -29t268 29q19 7 34.5 23t26 43 t18.5 54.5t13 70.5t8 77.5t4 88t1.5 88.5t0.5 93q0 202 -3 400q-2 60 -6.5 95t-19 68.5t-37.5 49.5t-65.5 29t-99.5 17t-143 4t-143 -4t-99.5 -17t-65.5 -29t-37.5 -49.5t-19 -68.5t-6.5 -95q-3 -185 -3 -372z" />
<glyph unicode="&#xd4;" d="M429 1690l192 309q35 52 94 52t94 -52l192 -309l-55 -54l-231 236l-231 -236zM137 812q0 148 8 246t31.5 182t62 132t105 82.5t155 47t216.5 12.5q121 0 207 -12t152.5 -42.5t107 -76t66.5 -119.5t35.5 -165.5t9.5 -222.5q0 -370 -11 -487q-19 -200 -92 -286 q-77 -92 -262 -116q-88 -11 -213 -11q-87 0 -154.5 4t-124.5 19.5t-97.5 28.5t-73 49.5t-53.5 63t-36 88t-22 105t-11.5 134.5t-5 156t-0.5 188zM341 725q0 -282 15 -386q24 -156 91 -180q50 -29 268 -29t268 29q19 7 34.5 23t26 43t18.5 54.5t13 70.5t8 77.5t4 88t1.5 88.5 t0.5 93q0 202 -3 400q-2 60 -6.5 95t-19 68.5t-37.5 49.5t-65.5 29t-99.5 17t-143 4t-143 -4t-99.5 -17t-65.5 -29t-37.5 -49.5t-19 -68.5t-6.5 -95q-3 -185 -3 -372z" />
<glyph unicode="&#xd5;" d="M376 1700q49 156 209 156q53 0 99.5 -17t83.5 -34t66 -17q82 0 185 83l34 -50q-51 -185 -227 -185q-53 0 -143 42t-132 42q-78 0 -146 -63zM137 812q0 148 8 246t31.5 182t62 132t105 82.5t155 47t216.5 12.5q121 0 207 -12t152.5 -42.5t107 -76t66.5 -119.5t35.5 -165.5 t9.5 -222.5q0 -370 -11 -487q-19 -200 -92 -286q-77 -92 -262 -116q-88 -11 -213 -11q-87 0 -154.5 4t-124.5 19.5t-97.5 28.5t-73 49.5t-53.5 63t-36 88t-22 105t-11.5 134.5t-5 156t-0.5 188zM341 725q0 -282 15 -386q24 -156 91 -180q50 -29 268 -29t268 29q19 7 34.5 23 t26 43t18.5 54.5t13 70.5t8 77.5t4 88t1.5 88.5t0.5 93q0 202 -3 400q-2 60 -6.5 95t-19 68.5t-37.5 49.5t-65.5 29t-99.5 17t-143 4t-143 -4t-99.5 -17t-65.5 -29t-37.5 -49.5t-19 -68.5t-6.5 -95q-3 -185 -3 -372z" />
<glyph unicode="&#xd6;" d="M339 1763q0 62 36 94.5t95 32.5t94 -32t35 -95t-35 -95t-94 -32t-95 32.5t-36 94.5zM831 1763q0 62 36 94.5t95 32.5t94 -32t35 -95t-35 -95t-94 -32t-95 32.5t-36 94.5zM137 812q0 148 8 246t31.5 182t62 132t105 82.5t155 47t216.5 12.5q121 0 207 -12t152.5 -42.5 t107 -76t66.5 -119.5t35.5 -165.5t9.5 -222.5q0 -370 -11 -487q-19 -200 -92 -286q-77 -92 -262 -116q-88 -11 -213 -11q-87 0 -154.5 4t-124.5 19.5t-97.5 28.5t-73 49.5t-53.5 63t-36 88t-22 105t-11.5 134.5t-5 156t-0.5 188zM341 725q0 -282 15 -386q24 -156 91 -180 q50 -29 268 -29t268 29q19 7 34.5 23t26 43t18.5 54.5t13 70.5t8 77.5t4 88t1.5 88.5t0.5 93q0 202 -3 400q-2 60 -6.5 95t-19 68.5t-37.5 49.5t-65.5 29t-99.5 17t-143 4t-143 -4t-99.5 -17t-65.5 -29t-37.5 -49.5t-19 -68.5t-6.5 -95q-3 -185 -3 -372z" />
<glyph unicode="&#xd7;" horiz-adv-x="860" d="M68 420l224 250q-1 1 -22 25l-202 225q3 3 79 88l40 44l226 -250l227 250l118 -132l-223 -250l223 -250l-118 -132l-227 250l-226 -250q-3 3 -79 88z" />
<glyph unicode="&#xd8;" d="M137 812q0 148 8 246t31.5 182t62 132t105 82.5t155 47t216.5 12.5q121 0 207 -12t152.5 -42.5t107 -76t66.5 -119.5t35.5 -165.5t9.5 -222.5q0 -370 -11 -487q-19 -200 -92 -286q-77 -92 -262 -116q-88 -11 -213 -11q-87 0 -154.5 4t-124.5 19.5t-97.5 28.5t-73 49.5 t-53.5 63t-36 88t-22 105t-11.5 134.5t-5 156t-0.5 188zM336 -300l591 2059h133l-591 -2059h-133zM341 725q0 -282 15 -386q24 -156 91 -180q50 -29 268 -29t268 29q19 7 34.5 23t26 43t18.5 54.5t13 70.5t8 77.5t4 88t1.5 88.5t0.5 93q0 202 -3 400q-2 60 -6.5 95t-19 68.5 t-37.5 49.5t-65.5 29t-99.5 17t-143 4t-143 -4t-99.5 -17t-65.5 -29t-37.5 -49.5t-19 -68.5t-6.5 -95q-3 -185 -3 -372z" />
<glyph unicode="&#xd9;" horiz-adv-x="1442" d="M253 1889q0 41 28 70.5t75 29.5q44 0 84 -35q17 -14 91 -88t139 -141l66 -68l-17 -21l-93 35q-93 35 -192 72t-110 42q-35 15 -53 44t-18 60zM157 557v933h203v-959q0 -83 0.5 -120t5.5 -90.5t13 -73t26.5 -48.5t42 -36.5t64.5 -18.5t88.5 -12.5t118.5 -1.5q84 0 140.5 5 t98.5 20t64.5 34.5t36 57.5t17.5 79t4 109l-1 1055h203v-933q0 -120 -10.5 -206t-37.5 -152.5t-67.5 -108t-106 -68t-146.5 -36.5t-196 -10q-111 0 -189 9t-144 33.5t-106.5 65t-69.5 106t-40.5 154.5t-11.5 213z" />
<glyph unicode="&#xda;" horiz-adv-x="1442" d="M703 1657q257 266 296 297q40 35 84 35q47 0 75 -29.5t28 -70.5q0 -31 -18 -60t-53 -44q-11 -5 -110 -42t-192 -72l-93 -35zM157 557v933h203v-959q0 -83 0.5 -120t5.5 -90.5t13 -73t26.5 -48.5t42 -36.5t64.5 -18.5t88.5 -12.5t118.5 -1.5q84 0 140.5 5t98.5 20 t64.5 34.5t36 57.5t17.5 79t4 109l-1 1055h203v-933q0 -120 -10.5 -206t-37.5 -152.5t-67.5 -108t-106 -68t-146.5 -36.5t-196 -10q-111 0 -189 9t-144 33.5t-106.5 65t-69.5 106t-40.5 154.5t-11.5 213z" />
<glyph unicode="&#xdb;" horiz-adv-x="1442" d="M433 1690l192 309q35 52 94 52t94 -52l192 -309l-55 -54l-231 236l-231 -236zM157 557v933h203v-959q0 -83 0.5 -120t5.5 -90.5t13 -73t26.5 -48.5t42 -36.5t64.5 -18.5t88.5 -12.5t118.5 -1.5q84 0 140.5 5t98.5 20t64.5 34.5t36 57.5t17.5 79t4 109l-1 1055h203v-933 q0 -120 -10.5 -206t-37.5 -152.5t-67.5 -108t-106 -68t-146.5 -36.5t-196 -10q-111 0 -189 9t-144 33.5t-106.5 65t-69.5 106t-40.5 154.5t-11.5 213z" />
<glyph unicode="&#xdc;" horiz-adv-x="1442" d="M343 1763q0 62 36 94.5t95 32.5t94 -32t35 -95t-35 -95t-94 -32t-95 32.5t-36 94.5zM835 1763q0 62 36 94.5t95 32.5t94 -32t35 -95t-35 -95t-94 -32t-95 32.5t-36 94.5zM157 557v933h203v-959q0 -83 0.5 -120t5.5 -90.5t13 -73t26.5 -48.5t42 -36.5t64.5 -18.5 t88.5 -12.5t118.5 -1.5q84 0 140.5 5t98.5 20t64.5 34.5t36 57.5t17.5 79t4 109l-1 1055h203v-933q0 -120 -10.5 -206t-37.5 -152.5t-67.5 -108t-106 -68t-146.5 -36.5t-196 -10q-111 0 -189 9t-144 33.5t-106.5 65t-69.5 106t-40.5 154.5t-11.5 213z" />
<glyph unicode="&#xdd;" horiz-adv-x="1087" d="M527 1657q257 266 296 297q40 35 84 35q47 0 75 -29.5t28 -70.5q0 -31 -18 -60t-53 -44q-11 -5 -110 -42t-192 -72l-93 -35zM-1 1490h221l325 -763l331 763h214l-451 -972v-518h-202v518z" />
<glyph unicode="&#xde;" horiz-adv-x="1293" d="M171 0v1489h200v-205h245q112 0 189.5 -7t143.5 -26t106.5 -50t69 -82.5t40 -120.5t11.5 -166q0 -95 -17 -169.5t-49.5 -122.5t-72 -80.5t-92.5 -49t-101.5 -23t-107.5 -6.5q-27 0 -76 1t-71 1h-218v-383h-200zM371 551h323q71 0 119.5 5.5t80 24t48.5 34t24.5 55t9 66.5 t1.5 88v8q0 54 -2 90t-10.5 68.5t-18 51.5t-32.5 35t-46 23.5t-67 12.5t-86.5 6t-111.5 1h-232v-569z" />
<glyph unicode="&#xdf;" horiz-adv-x="1235" d="M152 613q0 318 13 519q13 212 106 288.5t329 76.5q234 0 335.5 -79t101.5 -277q0 -293 -152 -314q104 -7 168 -111t64 -315q0 -72 -11 -129.5t-37 -98.5t-53.5 -71t-78 -48.5t-91 -30t-111.5 -16.5t-121.5 -6t-137.5 -1v162q42 0 123 -1t109 -1q53 0 81.5 2.5t56 16.5 t39 34.5t21 65t11.5 98.5t2 145q0 43 -1.5 71.5t-13 53t-19 38.5t-37.5 25t-49 15.5t-74 7.5t-92 3.5t-122 0.5h-5v153q45 0 106.5 -2.5t80.5 -2.5q28 0 47 2t36 9t27 15.5t18.5 28t12 39.5t6.5 56t3.5 72t0.5 93t-15 83t-71 40t-174 14q-122 0 -156 -12q-45 -15 -59 -72 q-12 -51 -12 -252v-85q0 -181 0.5 -543t0.5 -542l-199 -16q0 131 -3.5 397.5t-3.5 400.5z" />
<glyph unicode="&#xe0;" horiz-adv-x="1111" d="M65 1503q0 41 28 70.5t75 29.5q44 0 84 -35q17 -14 91 -88t139 -141l66 -68l-17 -21l-93 35q-93 35 -192 72t-110 42q-35 15 -53 44t-18 60zM101 354q0 47 16.5 84t45 63t76 45t98.5 30t123.5 17.5t141.5 8.5t161 2v297q0 51 -48 70.5t-171 19.5q-86 0 -129 -4 t-65.5 -23.5t-26 -38.5t-4.5 -71q-1 -19 -1 -30l-153 6q-2 16 -2 47q0 67 19.5 113.5t50.5 73t85 41.5t107 19t132 4q120 0 195 -18.5t123 -66.5t66.5 -122.5t18.5 -194.5v-726h-156l-32 157q-30 -103 -108.5 -137.5t-229.5 -34.5q-100 0 -164 19.5t-102 65.5t-52.5 112.5 t-14.5 171.5zM283 348q0 -152 25 -189t153 -37q109 0 177 26t94.5 66.5t30.5 99.5v171q-197 0 -303 -15t-141.5 -41.5t-35.5 -74.5v-6z" />
<glyph unicode="&#xe1;" horiz-adv-x="1111" d="M513 1271q257 266 296 297q40 35 84 35q47 0 75 -29.5t28 -70.5q0 -31 -18 -60t-53 -44q-11 -5 -110 -42t-192 -72l-93 -35zM101 354q0 47 16.5 84t45 63t76 45t98.5 30t123.5 17.5t141.5 8.5t161 2v297q0 51 -48 70.5t-171 19.5q-86 0 -129 -4t-65.5 -23.5t-26 -38.5 t-4.5 -71q-1 -19 -1 -30l-153 6q-2 16 -2 47q0 67 19.5 113.5t50.5 73t85 41.5t107 19t132 4q120 0 195 -18.5t123 -66.5t66.5 -122.5t18.5 -194.5v-726h-156l-32 157q-30 -103 -108.5 -137.5t-229.5 -34.5q-100 0 -164 19.5t-102 65.5t-52.5 112.5t-14.5 171.5zM283 348 q0 -152 25 -189t153 -37q109 0 177 26t94.5 66.5t30.5 99.5v171q-197 0 -303 -15t-141.5 -41.5t-35.5 -74.5v-6z" />
<glyph unicode="&#xe2;" horiz-adv-x="1111" d="M271 1304l192 309q35 52 94 52t94 -52l192 -309l-55 -54l-231 236l-231 -236zM101 354q0 47 16.5 84t45 63t76 45t98.5 30t123.5 17.5t141.5 8.5t161 2v297q0 51 -48 70.5t-171 19.5q-86 0 -129 -4t-65.5 -23.5t-26 -38.5t-4.5 -71q-1 -19 -1 -30l-153 6q-2 16 -2 47 q0 67 19.5 113.5t50.5 73t85 41.5t107 19t132 4q120 0 195 -18.5t123 -66.5t66.5 -122.5t18.5 -194.5v-726h-156l-32 157q-30 -103 -108.5 -137.5t-229.5 -34.5q-100 0 -164 19.5t-102 65.5t-52.5 112.5t-14.5 171.5zM283 348q0 -152 25 -189t153 -37q109 0 177 26 t94.5 66.5t30.5 99.5v171q-197 0 -303 -15t-141.5 -41.5t-35.5 -74.5v-6z" />
<glyph unicode="&#xe3;" horiz-adv-x="1111" d="M218 1314q49 156 209 156q53 0 99.5 -17t83.5 -34t66 -17q82 0 185 83l34 -50q-51 -185 -227 -185q-53 0 -143 42t-132 42q-78 0 -146 -63zM101 354q0 47 16.5 84t45 63t76 45t98.5 30t123.5 17.5t141.5 8.5t161 2v297q0 51 -48 70.5t-171 19.5q-86 0 -129 -4 t-65.5 -23.5t-26 -38.5t-4.5 -71q-1 -19 -1 -30l-153 6q-2 16 -2 47q0 67 19.5 113.5t50.5 73t85 41.5t107 19t132 4q120 0 195 -18.5t123 -66.5t66.5 -122.5t18.5 -194.5v-726h-156l-32 157q-30 -103 -108.5 -137.5t-229.5 -34.5q-100 0 -164 19.5t-102 65.5t-52.5 112.5 t-14.5 171.5zM283 348q0 -152 25 -189t153 -37q109 0 177 26t94.5 66.5t30.5 99.5v171q-197 0 -303 -15t-141.5 -41.5t-35.5 -74.5v-6z" />
<glyph unicode="&#xe4;" horiz-adv-x="1111" d="M155 1377q0 62 36 94.5t95 32.5t94 -32t35 -95t-35 -95t-94 -32t-95 32.5t-36 94.5zM647 1377q0 62 36 94.5t95 32.5t94 -32t35 -95t-35 -95t-94 -32t-95 32.5t-36 94.5zM101 354q0 47 16.5 84t45 63t76 45t98.5 30t123.5 17.5t141.5 8.5t161 2v297q0 51 -48 70.5 t-171 19.5q-86 0 -129 -4t-65.5 -23.5t-26 -38.5t-4.5 -71q-1 -19 -1 -30l-153 6q-2 16 -2 47q0 67 19.5 113.5t50.5 73t85 41.5t107 19t132 4q120 0 195 -18.5t123 -66.5t66.5 -122.5t18.5 -194.5v-726h-156l-32 157q-30 -103 -108.5 -137.5t-229.5 -34.5q-100 0 -164 19.5 t-102 65.5t-52.5 112.5t-14.5 171.5zM283 348q0 -152 25 -189t153 -37q109 0 177 26t94.5 66.5t30.5 99.5v171q-197 0 -303 -15t-141.5 -41.5t-35.5 -74.5v-6z" />
<glyph unicode="&#xe5;" horiz-adv-x="1111" d="M301 1504q0 113 71.5 183.5t183.5 70.5t185 -71.5t73 -182.5q0 -113 -72 -183.5t-184 -70.5q-108 0 -182.5 69t-74.5 185zM441 1504q0 -137 128 -137q43 0 72.5 42t29.5 93q0 65 -33.5 101.5t-95.5 36.5q-43 0 -72 -42t-29 -94zM101 354q0 47 16.5 84t45 63t76 45 t98.5 30t123.5 17.5t141.5 8.5t161 2v297q0 51 -48 70.5t-171 19.5q-86 0 -129 -4t-65.5 -23.5t-26 -38.5t-4.5 -71q-1 -19 -1 -30l-153 6q-2 16 -2 47q0 67 19.5 113.5t50.5 73t85 41.5t107 19t132 4q120 0 195 -18.5t123 -66.5t66.5 -122.5t18.5 -194.5v-726h-156l-32 157 q-30 -103 -108.5 -137.5t-229.5 -34.5q-100 0 -164 19.5t-102 65.5t-52.5 112.5t-14.5 171.5zM283 348q0 -152 25 -189t153 -37q109 0 177 26t94.5 66.5t30.5 99.5v171q-197 0 -303 -15t-141.5 -41.5t-35.5 -74.5v-6z" />
<glyph unicode="&#xe6;" horiz-adv-x="1755" d="M101 354q0 47 16.5 84t45 63t76 45t98.5 30t123.5 17.5t141.5 8.5t161 2v297q0 51 -48 70.5t-171 19.5q-86 0 -129 -4t-65.5 -23.5t-26 -38.5t-4.5 -71q-1 -19 -1 -30l-153 6q-2 16 -2 47q0 67 19.5 113.5t50.5 73t85 41.5t107 19t132 4q220 0 308 -75q48 41 131 58 t221 17q72 0 124 -4.5t95.5 -18.5t72 -32t50.5 -53t33.5 -72.5t19 -99.5t9.5 -125.5t2 -158.5q-120 -12 -149 -14h-514v-81q0 -47 3.5 -133t3.5 -104q5 -67 57.5 -88.5t204.5 -21.5q44 0 77 4t55 10.5t36.5 19t22.5 24t12 31.5t5 35.5t2.5 42t3.5 45.5l153 -28 q-2 -70 -9.5 -118.5t-25 -85.5t-41.5 -58.5t-64.5 -35.5t-89 -18.5t-120.5 -4.5q-176 0 -275 32t-145 102q-43 -80 -135.5 -107t-256.5 -27q-100 0 -164 19.5t-102 65.5t-52.5 112.5t-14.5 171.5zM283 348q0 -152 25 -189t153 -37q109 0 177 26t94.5 66.5t30.5 99.5v163v8 q-197 0 -303 -15t-141.5 -41.5t-35.5 -74.5v-6zM960 655h466q-2 128 -10 234q-4 61 -45.5 81.5t-154.5 20.5q-143 0 -181 -16q-17 -5 -29.5 -17.5t-20.5 -35.5t-12.5 -43t-7 -55.5t-3.5 -55t-1.5 -59.5t-0.5 -54z" />
<glyph unicode="&#xe7;" horiz-adv-x="1112" d="M290 -466l47 90q111 -50 162 -50q59 0 59 54q0 87 -138 87q8 35 37 145l38 144h109l-49 -168q56 -8 91 -17.5t67 -30.5t46.5 -57t14.5 -91q0 -90 -71 -139t-174 -49q-143 0 -239 82zM119 619q0 80 3 138.5t12 112t23.5 89t39 66.5t56 49t78 31t102 18t129.5 5 q95 0 159.5 -9.5t114.5 -31.5t79 -62.5t45 -99t20 -144.5l-162 -27l-21 139q-8 48 -19 61q-26 30 -144 34q-28 1 -62 1q-136 0 -178 -15q-46 -8 -67 -91t-21 -203l2 -173v-99v-116q0 -34 8.5 -76t20 -52.5t43.5 -24.5t68.5 -15t105.5 -1q54 0 93.5 4t67 9.5t45 19t27 24.5 t14.5 34.5t6.5 40.5t3.5 51.5t5 58.5l164 -28q-6 -78 -13.5 -125t-25 -91t-44 -66.5t-73 -40.5t-108 -23.5t-153.5 -5.5q-66 0 -118.5 4t-95.5 16.5t-75 24t-56.5 40.5t-41 50t-27.5 68t-17 80t-9 100.5t-3.5 114.5t-0.5 136z" />
<glyph unicode="&#xe8;" horiz-adv-x="1141" d="M98 1503q0 41 28 70.5t75 29.5q44 0 84 -35q17 -14 91 -88t139 -141l66 -68l-17 -21l-93 35q-93 35 -192 72t-110 42q-35 15 -53 44t-18 60zM119 534q0 138 3.5 215t19.5 154.5t43 112.5t80 65t125 38.5t183 8.5q77 0 133 -4.5t103 -18.5t77.5 -32t54 -53t36 -72.5 t20.5 -99.5t10 -125.5t2 -158.5q-119 -12 -149 -14h-545q1 -145 8 -318q5 -67 57.5 -88.5t204.5 -21.5q57 0 98 4.5t66.5 16t40 22t21.5 33t9 38t4 47t5 51.5l153 -28q-2 -70 -10 -118.5t-27 -85.5t-45 -58.5t-70 -35.5t-97 -18.5t-131 -4.5q-100 0 -174 11.5t-126.5 28.5 t-86.5 55.5t-53.5 73.5t-28.5 103t-11.5 123.5t-2.5 153.5zM316 655h496q-2 128 -10 234q-4 61 -52.5 81.5t-177.5 20.5q-143 0 -181 -16q-17 -5 -29.5 -17.5t-20.5 -35.5t-12.5 -43t-7 -55.5t-3.5 -55t-1.5 -59.5t-0.5 -54z" />
<glyph unicode="&#xe9;" horiz-adv-x="1141" d="M547 1271q257 266 296 297q40 35 84 35q47 0 75 -29.5t28 -70.5q0 -31 -18 -60t-53 -44q-11 -5 -110 -42t-192 -72l-93 -35zM119 534q0 138 3.5 215t19.5 154.5t43 112.5t80 65t125 38.5t183 8.5q77 0 133 -4.5t103 -18.5t77.5 -32t54 -53t36 -72.5t20.5 -99.5t10 -125.5 t2 -158.5q-119 -12 -149 -14h-545q1 -145 8 -318q5 -67 57.5 -88.5t204.5 -21.5q57 0 98 4.5t66.5 16t40 22t21.5 33t9 38t4 47t5 51.5l153 -28q-2 -70 -10 -118.5t-27 -85.5t-45 -58.5t-70 -35.5t-97 -18.5t-131 -4.5q-100 0 -174 11.5t-126.5 28.5t-86.5 55.5t-53.5 73.5 t-28.5 103t-11.5 123.5t-2.5 153.5zM316 655h496q-2 128 -10 234q-4 61 -52.5 81.5t-177.5 20.5q-143 0 -181 -16q-17 -5 -29.5 -17.5t-20.5 -35.5t-12.5 -43t-7 -55.5t-3.5 -55t-1.5 -59.5t-0.5 -54z" />
<glyph unicode="&#xea;" horiz-adv-x="1141" d="M287 1304l192 309q35 52 94 52t94 -52l192 -309l-55 -54l-231 236l-231 -236zM119 534q0 138 3.5 215t19.5 154.5t43 112.5t80 65t125 38.5t183 8.5q77 0 133 -4.5t103 -18.5t77.5 -32t54 -53t36 -72.5t20.5 -99.5t10 -125.5t2 -158.5q-119 -12 -149 -14h-545 q1 -145 8 -318q5 -67 57.5 -88.5t204.5 -21.5q57 0 98 4.5t66.5 16t40 22t21.5 33t9 38t4 47t5 51.5l153 -28q-2 -70 -10 -118.5t-27 -85.5t-45 -58.5t-70 -35.5t-97 -18.5t-131 -4.5q-100 0 -174 11.5t-126.5 28.5t-86.5 55.5t-53.5 73.5t-28.5 103t-11.5 123.5t-2.5 153.5 zM316 655h496q-2 128 -10 234q-4 61 -52.5 81.5t-177.5 20.5q-143 0 -181 -16q-17 -5 -29.5 -17.5t-20.5 -35.5t-12.5 -43t-7 -55.5t-3.5 -55t-1.5 -59.5t-0.5 -54z" />
<glyph unicode="&#xeb;" horiz-adv-x="1141" d="M188 1377q0 62 36 94.5t95 32.5t94 -32t35 -95t-35 -95t-94 -32t-95 32.5t-36 94.5zM680 1377q0 62 36 94.5t95 32.5t94 -32t35 -95t-35 -95t-94 -32t-95 32.5t-36 94.5zM119 534q0 138 3.5 215t19.5 154.5t43 112.5t80 65t125 38.5t183 8.5q77 0 133 -4.5t103 -18.5 t77.5 -32t54 -53t36 -72.5t20.5 -99.5t10 -125.5t2 -158.5q-119 -12 -149 -14h-545q1 -145 8 -318q5 -67 57.5 -88.5t204.5 -21.5q57 0 98 4.5t66.5 16t40 22t21.5 33t9 38t4 47t5 51.5l153 -28q-2 -70 -10 -118.5t-27 -85.5t-45 -58.5t-70 -35.5t-97 -18.5t-131 -4.5 q-100 0 -174 11.5t-126.5 28.5t-86.5 55.5t-53.5 73.5t-28.5 103t-11.5 123.5t-2.5 153.5zM316 655h496q-2 128 -10 234q-4 61 -52.5 81.5t-177.5 20.5q-143 0 -181 -16q-17 -5 -29.5 -17.5t-20.5 -35.5t-12.5 -43t-7 -55.5t-3.5 -55t-1.5 -59.5t-0.5 -54z" />
<glyph unicode="&#xec;" horiz-adv-x="533" d="M-212 1512q0 41 28 70.5t75 29.5q44 0 84 -35q17 -14 91 -88t139 -141l66 -68l-17 -21l-93 35q-93 35 -192 72t-110 42q-35 15 -53 44t-18 60zM167 0v1097h197v-1097h-197z" />
<glyph unicode="&#xed;" horiz-adv-x="533" d="M237 1280q257 266 296 297q40 35 84 35q47 0 75 -29.5t28 -70.5q0 -31 -18 -60t-53 -44q-11 -5 -110 -42t-192 -72l-93 -35zM167 0v1097h197v-1097h-197z" />
<glyph unicode="&#xee;" horiz-adv-x="533" d="M-32 1313l192 309q35 52 94 52t94 -52l192 -309l-55 -54l-231 236l-231 -236zM167 0v1097h197v-1097h-197z" />
<glyph unicode="&#xef;" horiz-adv-x="533" d="M-122 1386q0 62 36 94.5t95 32.5t94 -32t35 -95t-35 -95t-94 -32t-95 32.5t-36 94.5zM370 1386q0 62 36 94.5t95 32.5t94 -32t35 -95t-35 -95t-94 -32t-95 32.5t-36 94.5zM167 0v1097h197v-1097h-197z" />
<glyph unicode="&#xf0;" horiz-adv-x="1206" d="M99 391l1 208q1 195 93 281t318 86q337 0 365 -150q-10 196 -30.5 295.5t-66.5 150.5l-157 -157l-60 60l147 147q-14 6 -29.5 11.5t-35.5 10.5t-36.5 8.5t-43.5 7t-44.5 6t-52 6t-54 5t-62 5.5t-64.5 6l18 119q355 -22 503 -86l176 176l60 -60l-158 -158q40 -28 69.5 -67 t50 -77t33.5 -108.5t20 -121t10.5 -157t4 -174t0.5 -212.5q0 -150 -21.5 -241t-79 -144.5t-142 -72t-225.5 -18.5q-128 0 -212 12t-144.5 38.5t-92.5 76t-45.5 117.5t-12.5 171zM292 214q0 -27 3.5 -44t18.5 -30.5t32 -19.5t58 -10t82.5 -5t117.5 -1q72 0 116.5 1t76.5 7.5 t46.5 11t23 21t9 27.5t0.5 40v439q0 43 -3.5 68t-18 51t-43.5 39t-79 21t-126 8q-77 0 -123.5 -1.5t-85 -6.5t-56.5 -12.5t-30.5 -23t-15 -33t-2.5 -47.5z" />
<glyph unicode="&#xf1;" horiz-adv-x="1171" d="M248 1314q49 156 209 156q53 0 99.5 -17t83.5 -34t66 -17q82 0 185 83l34 -50q-51 -185 -227 -185q-53 0 -143 42t-132 42q-78 0 -146 -63zM153 0v1097h180l19 -123q26 82 115 118t212 36q58 0 103 -7t80 -23.5t60.5 -37.5t43 -55.5t28.5 -70.5t17 -90t8 -107.5t2 -127.5 v-609h-197v664q0 64 -0.5 102.5t-4 77.5t-7.5 58.5t-14.5 39t-21.5 26.5t-32 13.5t-42 7.5t-56 1q-76 0 -129.5 -8.5t-87.5 -23.5t-52.5 -42t-25.5 -58.5t-7 -77.5q0 -26 3 -90.5t3 -104.5v-585h-197z" />
<glyph unicode="&#xf2;" horiz-adv-x="1178" d="M115 1503q0 41 28 70.5t75 29.5q44 0 84 -35q17 -14 91 -88t139 -141l66 -68l-17 -21l-93 35q-93 35 -192 72t-110 42q-35 15 -53 44t-18 60zM119 558q0 97 2.5 162t11.5 127.5t22.5 101t39 73t57.5 52.5t81.5 31.5t108 18t139.5 4.5t139.5 -4.5t108 -18t81.5 -31.5 t57.5 -52.5t39 -73t22.5 -101t11.5 -127.5t2.5 -162q0 -130 -3.5 -203t-19.5 -147.5t-44.5 -109.5t-82 -65t-127.5 -39t-186 -9q-111 0 -185 9t-127.5 39.5t-81.5 65t-44 109t-19.5 147.5t-3.5 203zM316 546q0 -188 11 -331q0 -53 58.5 -72.5t196.5 -19.5q142 3 197.5 21 t55.5 71q11 143 11 331q0 62 -5 177.5t-5 171.5q0 17 -5.5 31t-18 23.5t-25 16.5t-35 11t-38 7t-44 4t-44.5 1h-45h-45q-16 0 -44.5 -1t-44 -4t-38 -7t-35 -11t-25 -16.5t-18 -23.5t-5.5 -31q0 -56 -5 -171.5t-5 -177.5z" />
<glyph unicode="&#xf3;" horiz-adv-x="1178" d="M564 1271q257 266 296 297q40 35 84 35q47 0 75 -29.5t28 -70.5q0 -31 -18 -60t-53 -44q-11 -5 -110 -42t-192 -72l-93 -35zM119 558q0 97 2.5 162t11.5 127.5t22.5 101t39 73t57.5 52.5t81.5 31.5t108 18t139.5 4.5t139.5 -4.5t108 -18t81.5 -31.5t57.5 -52.5t39 -73 t22.5 -101t11.5 -127.5t2.5 -162q0 -130 -3.5 -203t-19.5 -147.5t-44.5 -109.5t-82 -65t-127.5 -39t-186 -9q-111 0 -185 9t-127.5 39.5t-81.5 65t-44 109t-19.5 147.5t-3.5 203zM316 546q0 -188 11 -331q0 -53 58.5 -72.5t196.5 -19.5q142 3 197.5 21t55.5 71 q11 143 11 331q0 62 -5 177.5t-5 171.5q0 17 -5.5 31t-18 23.5t-25 16.5t-35 11t-38 7t-44 4t-44.5 1h-45h-45q-16 0 -44.5 -1t-44 -4t-38 -7t-35 -11t-25 -16.5t-18 -23.5t-5.5 -31q0 -56 -5 -171.5t-5 -177.5z" />
<glyph unicode="&#xf4;" horiz-adv-x="1178" d="M295 1304l192 309q35 52 94 52t94 -52l192 -309l-55 -54l-231 236l-231 -236zM119 558q0 97 2.5 162t11.5 127.5t22.5 101t39 73t57.5 52.5t81.5 31.5t108 18t139.5 4.5t139.5 -4.5t108 -18t81.5 -31.5t57.5 -52.5t39 -73t22.5 -101t11.5 -127.5t2.5 -162 q0 -130 -3.5 -203t-19.5 -147.5t-44.5 -109.5t-82 -65t-127.5 -39t-186 -9q-111 0 -185 9t-127.5 39.5t-81.5 65t-44 109t-19.5 147.5t-3.5 203zM316 546q0 -188 11 -331q0 -53 58.5 -72.5t196.5 -19.5q142 3 197.5 21t55.5 71q11 143 11 331q0 62 -5 177.5t-5 171.5 q0 17 -5.5 31t-18 23.5t-25 16.5t-35 11t-38 7t-44 4t-44.5 1h-45h-45q-16 0 -44.5 -1t-44 -4t-38 -7t-35 -11t-25 -16.5t-18 -23.5t-5.5 -31q0 -56 -5 -171.5t-5 -177.5z" />
<glyph unicode="&#xf5;" horiz-adv-x="1178" d="M242 1314q49 156 209 156q53 0 99.5 -17t83.5 -34t66 -17q82 0 185 83l34 -50q-51 -185 -227 -185q-53 0 -143 42t-132 42q-78 0 -146 -63zM119 558q0 97 2.5 162t11.5 127.5t22.5 101t39 73t57.5 52.5t81.5 31.5t108 18t139.5 4.5t139.5 -4.5t108 -18t81.5 -31.5 t57.5 -52.5t39 -73t22.5 -101t11.5 -127.5t2.5 -162q0 -130 -3.5 -203t-19.5 -147.5t-44.5 -109.5t-82 -65t-127.5 -39t-186 -9q-111 0 -185 9t-127.5 39.5t-81.5 65t-44 109t-19.5 147.5t-3.5 203zM316 546q0 -188 11 -331q0 -53 58.5 -72.5t196.5 -19.5q142 3 197.5 21 t55.5 71q11 143 11 331q0 62 -5 177.5t-5 171.5q0 17 -5.5 31t-18 23.5t-25 16.5t-35 11t-38 7t-44 4t-44.5 1h-45h-45q-16 0 -44.5 -1t-44 -4t-38 -7t-35 -11t-25 -16.5t-18 -23.5t-5.5 -31q0 -56 -5 -171.5t-5 -177.5z" />
<glyph unicode="&#xf6;" horiz-adv-x="1178" d="M205 1377q0 62 36 94.5t95 32.5t94 -32t35 -95t-35 -95t-94 -32t-95 32.5t-36 94.5zM697 1377q0 62 36 94.5t95 32.5t94 -32t35 -95t-35 -95t-94 -32t-95 32.5t-36 94.5zM119 558q0 97 2.5 162t11.5 127.5t22.5 101t39 73t57.5 52.5t81.5 31.5t108 18t139.5 4.5 t139.5 -4.5t108 -18t81.5 -31.5t57.5 -52.5t39 -73t22.5 -101t11.5 -127.5t2.5 -162q0 -130 -3.5 -203t-19.5 -147.5t-44.5 -109.5t-82 -65t-127.5 -39t-186 -9q-111 0 -185 9t-127.5 39.5t-81.5 65t-44 109t-19.5 147.5t-3.5 203zM316 546q0 -188 11 -331q0 -53 58.5 -72.5 t196.5 -19.5q142 3 197.5 21t55.5 71q11 143 11 331q0 62 -5 177.5t-5 171.5q0 17 -5.5 31t-18 23.5t-25 16.5t-35 11t-38 7t-44 4t-44.5 1h-45h-45q-16 0 -44.5 -1t-44 -4t-38 -7t-35 -11t-25 -16.5t-18 -23.5t-5.5 -31q0 -56 -5 -171.5t-5 -177.5z" />
<glyph unicode="&#xf7;" horiz-adv-x="537" d="M133 288q0 72 39.5 113t114.5 41q51 0 88.5 -47t37.5 -107q0 -64 -38 -110q-38 -44 -102 -44q-62 0 -101 42t-39 112zM133 1079q0 73 39.5 113.5t114.5 40.5q51 0 88.5 -47t37.5 -107q0 -68 -37.5 -111t-102.5 -43q-62 0 -101 42t-39 112z" />
<glyph unicode="&#xf8;" horiz-adv-x="1175" d="M119 558q0 -130 3.5 -203t19.5 -147.5t44 -109t81.5 -65t127.5 -39.5t185 -9h2q111 0 185 9t127.5 39.5t81.5 65t44 109t19.5 147.5t3.5 203q0 97 -2.5 162t-11.5 127.5t-22.5 101t-39 73t-57.5 52.5t-81.5 31.5t-108 18t-139.5 4.5t-139.5 -4.5t-108 -18t-81.5 -31.5 t-57.5 -52.5t-39 -73t-22.5 -101t-11.5 -127.5t-2.5 -162zM316 546q0 62 5 177.5t5 171.5q0 17 5.5 31t18 23.5t25 16.5t35 11t38 7t44 4t44.5 1h45h45q16 0 44.5 -1t44 -4t38 -7t35 -11t25 -16.5t18 -23.5t5.5 -31q0 -56 5 -171.5t5 -177.5q0 -188 -11 -331 q0 -53 -55.5 -71t-197.5 -21h-2q-142 3 -197.5 21t-55.5 71q-11 143 -11 331zM383 -200l321 1499h93l-321 -1499h-93z" />
<glyph unicode="&#xf9;" horiz-adv-x="1170" d="M109 1503q0 41 28 70.5t75 29.5q44 0 84 -35q17 -14 91 -88t139 -141l66 -68l-17 -21l-93 35q-93 35 -192 72t-110 42q-35 15 -53 44t-18 60zM140 454v643h197v-637q0 -22 -0.5 -59.5t-0.5 -52.5q0 -53 2 -83t10.5 -59t22.5 -42.5t42 -24.5t64.5 -14t93.5 -3q64 0 109 9 t71 23.5t39.5 39.5t17.5 49t4 60q0 12 -0.5 39t-0.5 41v714h199v-1098h-182l-18 141q-26 -79 -113.5 -117t-213.5 -38q-86 0 -145 17t-98.5 49.5t-61 91t-30 131t-8.5 180.5z" />
<glyph unicode="&#xfa;" horiz-adv-x="1170" d="M558 1271q257 266 296 297q40 35 84 35q47 0 75 -29.5t28 -70.5q0 -31 -18 -60t-53 -44q-11 -5 -110 -42t-192 -72l-93 -35zM140 454v643h197v-637q0 -22 -0.5 -59.5t-0.5 -52.5q0 -53 2 -83t10.5 -59t22.5 -42.5t42 -24.5t64.5 -14t93.5 -3q64 0 109 9t71 23.5 t39.5 39.5t17.5 49t4 60q0 12 -0.5 39t-0.5 41v714h199v-1098h-182l-18 141q-26 -79 -113.5 -117t-213.5 -38q-86 0 -145 17t-98.5 49.5t-61 91t-30 131t-8.5 180.5z" />
<glyph unicode="&#xfb;" horiz-adv-x="1170" d="M289 1304l192 309q35 52 94 52t94 -52l192 -309l-55 -54l-231 236l-231 -236zM140 454v643h197v-637q0 -22 -0.5 -59.5t-0.5 -52.5q0 -53 2 -83t10.5 -59t22.5 -42.5t42 -24.5t64.5 -14t93.5 -3q64 0 109 9t71 23.5t39.5 39.5t17.5 49t4 60q0 12 -0.5 39t-0.5 41v714h199 v-1098h-182l-18 141q-26 -79 -113.5 -117t-213.5 -38q-86 0 -145 17t-98.5 49.5t-61 91t-30 131t-8.5 180.5z" />
<glyph unicode="&#xfc;" horiz-adv-x="1170" d="M199 1377q0 62 36 94.5t95 32.5t94 -32t35 -95t-35 -95t-94 -32t-95 32.5t-36 94.5zM691 1377q0 62 36 94.5t95 32.5t94 -32t35 -95t-35 -95t-94 -32t-95 32.5t-36 94.5zM140 454v643h197v-637q0 -22 -0.5 -59.5t-0.5 -52.5q0 -53 2 -83t10.5 -59t22.5 -42.5t42 -24.5 t64.5 -14t93.5 -3q64 0 109 9t71 23.5t39.5 39.5t17.5 49t4 60q0 12 -0.5 39t-0.5 41v714h199v-1098h-182l-18 141q-26 -79 -113.5 -117t-213.5 -38q-86 0 -145 17t-98.5 49.5t-61 91t-30 131t-8.5 180.5z" />
<glyph unicode="&#xfd;" horiz-adv-x="1080" d="M510 1271q257 266 296 297q40 35 84 35q47 0 75 -29.5t28 -70.5q0 -31 -18 -60t-53 -44q-11 -5 -110 -42t-192 -72l-93 -35zM51 1097h199l202 -557q55 -152 102 -287q33 121 97 334l151 510h201l-346 -1044q-13 -38 -27.5 -91.5t-24 -86.5t-24 -72.5t-31.5 -63t-42 -45 t-60 -31t-81 -9.5q-119 0 -216 23l30 152q19 -2 51 -7.5t55.5 -8.5t43.5 -3q64 0 97 44t34 163z" />
<glyph unicode="&#xfe;" horiz-adv-x="1209" d="M167 -401v1965l195 15v-538q50 127 348 127q60 0 108.5 -10.5t84.5 -24.5t63 -45.5t45.5 -56.5t30.5 -76t18.5 -84.5t9.5 -102t3.5 -108t0.5 -122.5v-12q0 -129 -7.5 -212.5t-28.5 -153.5t-60 -107.5t-99.5 -57t-149.5 -19.5q-302 0 -366 128v-489zM360 355q0 -74 7 -113 t26 -59q27 -23 80.5 -31t151.5 -8q59 0 98 4t68.5 16t45 27.5t25 46.5t12 64.5t2.5 89.5q0 22 -0.5 78.5t-0.5 91.5q0 46 0.5 115t0.5 93q0 46 -1 75t-6 56t-10 41.5t-20 27t-27.5 18t-41.5 9t-53.5 4t-70.5 0.5q-44 0 -75 -0.5t-60.5 -3.5t-48 -5t-36 -10t-27 -14 t-17.5 -20t-11.5 -25.5t-6 -33.5t-3 -40.5t-0.5 -50.5q0 -29 1 -89t1 -88q0 -64 -1.5 -152t-1.5 -114z" />
<glyph unicode="&#xff;" horiz-adv-x="1080" d="M151 1377q0 62 36 94.5t95 32.5t94 -32t35 -95t-35 -95t-94 -32t-95 32.5t-36 94.5zM643 1377q0 62 36 94.5t95 32.5t94 -32t35 -95t-35 -95t-94 -32t-95 32.5t-36 94.5zM51 1097h199l202 -557q55 -152 102 -287q33 121 97 334l151 510h201l-346 -1044 q-13 -38 -27.5 -91.5t-24 -86.5t-24 -72.5t-31.5 -63t-42 -45t-60 -31t-81 -9.5q-119 0 -216 23l30 152q19 -2 51 -7.5t55.5 -8.5t43.5 -3q64 0 97 44t34 163z" />
<glyph unicode="&#x131;" horiz-adv-x="533" d="M167 0v1097h197v-1097h-197z" />
<glyph unicode="&#x152;" horiz-adv-x="2066" d="M137 812q0 142 8 237t31.5 176t62 127.5t105 80t155 45.5t216.5 12h1209l20 -154h-652v-479h557v-162h-557v-542h661l-20 -153h-1218q-87 0 -154.5 4t-124.5 19t-97.5 27.5t-73 48t-53.5 61t-36 85.5t-22 102t-11.5 130.5t-5 151.5t-0.5 183zM341 639q0 -25 0.5 -70.5 t2 -71t4 -65t6.5 -62.5t9.5 -54t13.5 -49.5t18 -37.5t23 -30t29 -16q50 -29 268 -29h374v1183h-374q-65 0 -112 -2t-86 -8t-64.5 -13.5t-45 -23t-30.5 -31t-18.5 -42t-10 -53t-4.5 -67.5q-3 -185 -3 -372v-13v-73z" />
<glyph unicode="&#x153;" horiz-adv-x="1874" d="M119 599q0 114 6 188.5t25.5 137t49.5 96.5t84 58t123.5 32t173.5 8q264 0 360 -85q54 48 138 66.5t218 18.5q78 0 135 -4.5t104.5 -19t78.5 -32.5t54.5 -53t36.5 -72.5t21 -99.5t10 -125t2 -158q-40 -6 -120 -14h-579q0 -17 0.5 -51.5t1 -57.5t1.5 -56.5t3.5 -57.5 t6 -52.5t9.5 -49t14.5 -39t20 -30t26.5 -16.5q54 -17 185 -17q134 0 187 18t53 61l1 133l163 -29q-2 -94 -11 -140q-20 -105 -108 -143t-268 -38q-153 0 -240.5 19t-142.5 68q-52 -46 -138 -66.5t-224 -20.5q-77 0 -136.5 7.5t-106.5 16.5t-80.5 36t-57.5 46.5t-39 67.5 t-23.5 80.5t-12 104.5t-4.5 119t-1 145zM316 544q0 -167 11 -337q0 -22 8 -37.5t26 -25.5t37 -16t52.5 -8.5t60 -3.5t70.5 -1q127 0 175 15q29 7 47.5 36t27 77t11.5 93t3 105q0 19 -0.5 54t-0.5 50q0 164 -11 334q0 24 -8 42t-25.5 28.5t-35 17.5t-46 9.5t-49 3.5t-53.5 1 q-168 0 -227 -17.5t-63 -84.5q-10 -154 -10 -335zM1040 647h500q0 120 -9 234q-4 60 -53.5 80.5t-181.5 20.5q-143 0 -182 -16q-17 -5 -29.5 -17.5t-20 -35.5t-12.5 -43t-7 -55t-3 -55t-1.5 -59.5t-0.5 -53.5z" />
<glyph unicode="&#x178;" horiz-adv-x="1087" d="M169 1763q0 62 36 94.5t95 32.5t94 -32t35 -95t-35 -95t-94 -32t-95 32.5t-36 94.5zM661 1763q0 62 36 94.5t95 32.5t94 -32t35 -95t-35 -95t-94 -32t-95 32.5t-36 94.5zM-1 1490h221l325 -763l331 763h214l-451 -972v-518h-202v518z" />
<glyph unicode="&#x2c6;" horiz-adv-x="801" d="M121 1445l192 309q35 52 94 52t94 -52l192 -309l-55 -54l-231 236l-231 -236z" />
<glyph unicode="&#x2da;" horiz-adv-x="745" d="M117 402q0 113 71.5 183.5t183.5 70.5t185 -71.5t73 -182.5q0 -113 -72 -183.5t-184 -70.5q-108 0 -182.5 69t-74.5 185zM257 402q0 -137 128 -137q43 0 72.5 42t29.5 93q0 65 -33.5 101.5t-95.5 36.5q-43 0 -72 -42t-29 -94z" />
<glyph unicode="&#x2dc;" horiz-adv-x="1015" d="M165 976q49 156 209 156q53 0 99.5 -17t83.5 -34t66 -17q82 0 185 83l34 -50q-51 -185 -227 -185q-53 0 -143 42t-132 42q-78 0 -146 -63z" />
<glyph unicode="&#x2000;" horiz-adv-x="1025" />
<glyph unicode="&#x2001;" horiz-adv-x="2051" />
<glyph unicode="&#x2002;" horiz-adv-x="1025" />
<glyph unicode="&#x2003;" horiz-adv-x="2051" />
<glyph unicode="&#x2004;" horiz-adv-x="683" />
<glyph unicode="&#x2005;" horiz-adv-x="512" />
<glyph unicode="&#x2006;" horiz-adv-x="341" />
<glyph unicode="&#x2007;" horiz-adv-x="341" />
<glyph unicode="&#x2008;" horiz-adv-x="256" />
<glyph unicode="&#x2009;" horiz-adv-x="410" />
<glyph unicode="&#x200a;" horiz-adv-x="113" />
<glyph unicode="&#x2010;" horiz-adv-x="847" d="M132 538v139h587v-139h-587z" />
<glyph unicode="&#x2011;" horiz-adv-x="847" d="M132 538v139h587v-139h-587z" />
<glyph unicode="&#x2012;" horiz-adv-x="847" d="M132 538v139h587v-139h-587z" />
<glyph unicode="&#x2013;" horiz-adv-x="1069" d="M131 580v188h811v-188h-811z" />
<glyph unicode="&#x2014;" horiz-adv-x="1785" d="M131 580v188h1528v-188h-1528z" />
<glyph unicode="&#x2018;" horiz-adv-x="525" d="M118 1202q0 140 88 245t210 105v-68q-61 0 -99 -59.5t-38 -139.5q132 0 132 -150q0 -46 -40 -90.5t-100 -44.5q-153 0 -153 202z" />
<glyph unicode="&#x2019;" horiz-adv-x="525" d="M123 1000v68q62 0 99.5 58.5t37.5 140.5q-132 0 -132 150q0 50 42 92.5t118 42.5q61 0 97.5 -56.5t36.5 -145.5q0 -135 -88 -242.5t-211 -107.5z" />
<glyph unicode="&#x201a;" horiz-adv-x="408" d="M125 164q0 77 17 107t70 30q86 0 86 -122q0 -37 -18 -150.5t-36 -208.5l-19 -96l-25 6q-75 355 -75 434z" />
<glyph unicode="&#x201c;" horiz-adv-x="1005" d="M118 1202q0 137 87 243.5t213 106.5v-68q-63 0 -101 -58.5t-38 -140.5q134 0 134 -150q0 -48 -40.5 -91.5t-101.5 -43.5q-153 0 -153 202zM596 1202q0 137 89 243.5t211 106.5v-68q-60 0 -98 -59t-38 -140q131 0 131 -150q0 -48 -41 -91.5t-117 -43.5q-62 0 -99.5 57.5 t-37.5 144.5z" />
<glyph unicode="&#x201d;" horiz-adv-x="1005" d="M123 1000v68q62 0 99.5 58.5t37.5 140.5q-132 0 -132 150q0 50 42 92.5t118 42.5q60 0 98.5 -57.5t38.5 -144.5q0 -135 -89 -242.5t-213 -107.5zM602 1000v68q63 0 100.5 57.5t37.5 141.5q-133 0 -133 150q0 48 42 91.5t119 43.5q61 0 97.5 -56.5t36.5 -145.5 q0 -87 -38.5 -167.5t-108.5 -131.5t-153 -51z" />
<glyph unicode="&#x201e;" horiz-adv-x="693" d="M125 164q0 77 17 107t70 30q86 0 86 -122q0 -37 -18 -150.5t-36 -208.5l-19 -96l-25 6q-75 355 -75 434zM409 164q0 77 17 107t70 30q86 0 86 -122q0 -37 -18 -150.5t-36 -208.5l-19 -96l-25 6q-75 355 -75 434z" />
<glyph unicode="&#x2022;" horiz-adv-x="894" d="M111 662q0 97 39.5 179.5t120.5 135.5t188 53q105 0 182 -51.5t114 -133.5t37 -181q0 -155 -90 -260.5t-245 -105.5q-158 0 -252 107t-94 257z" />
<glyph unicode="&#x2026;" horiz-adv-x="1606" d="M111 117q0 67 37.5 110.5t103.5 43.5q61 0 100.5 -45t39.5 -109q0 -68 -37.5 -111t-102.5 -43q-61 0 -101 44t-40 110zM664 118q0 65 39 109t101 44q63 0 102 -42.5t39 -111.5q0 -68 -37.5 -111t-101.5 -43q-62 0 -102 45.5t-40 109.5zM1218 117q0 72 39 113t115 41 q51 0 88.5 -47t37.5 -107q0 -68 -37.5 -111t-102.5 -43q-63 0 -101.5 42.5t-38.5 111.5z" />
<glyph unicode="&#x202f;" horiz-adv-x="410" />
<glyph unicode="&#x2039;" horiz-adv-x="725" d="M80 644v98l475 424l95 -113l-421 -360l421 -360l-95 -113z" />
<glyph unicode="&#x203a;" horiz-adv-x="729" d="M80 333l95 -113l475 424v98l-475 424l-95 -113l421 -360z" />
<glyph unicode="&#x205f;" horiz-adv-x="512" />
<glyph unicode="&#x20ac;" horiz-adv-x="1439" d="M58 549v101h914v-101h-914zM58 823v104l914 1v-105h-914zM140 748q0 112 1 180t6 148t12.5 124t24 96.5t37.5 78t55 55.5t74.5 41.5t98.5 23.5t124.5 15t154.5 3q91 0 155 -6.5t120 -25t92 -49t63.5 -79.5t42.5 -115.5t22 -159.5l-175 -34q-5 51 -9 85t-11.5 67t-12 53.5 t-18.5 40t-22.5 29.5t-31.5 19t-38.5 12.5t-51 6.5t-61.5 3h-76q-70 0 -114.5 -1.5t-89 -7t-70 -16t-47.5 -28t-31.5 -43t-11.5 -61.5q-9 -264 -9 -539q0 -192 9 -375q5 -57 32.5 -89t107 -51t225.5 -19q78 0 131 4.5t89 21t55 30t30.5 52.5t15 65.5t7.5 90.5q1 14 1.5 22 t1.5 21.5t2 24.5l174 -26q-5 -96 -17 -163.5t-35.5 -120.5t-57.5 -85.5t-87.5 -53.5t-120 -29t-160.5 -8q-90 0 -161 4.5t-129.5 20t-102 30t-77 48.5t-56 61t-38 82.5t-23.5 97.5t-12.5 122t-5.5 140t-1 166z" />
<glyph unicode="&#x2122;" horiz-adv-x="1125" d="M83 1448v73h346v-73h-122v-458h-102v458h-122zM515 990v531h119l124 -389l116 389h119v-531h-96v356l-107 -356h-84l-105 356v-356h-86z" />
<glyph unicode="&#xe000;" horiz-adv-x="1095" d="M0 1095h1095v-1095h-1095v1095z" />
<glyph unicode="&#xfb01;" horiz-adv-x="1227" d="M73 984v113h129q0 55 0.5 89.5t2.5 76.5t5 67t9.5 54t15 45.5t21.5 34.5t29.5 27t38.5 17t48.5 11t60.5 3q81 0 170 -17v-143q-54 3 -104 3q-62 0 -75 -6q-22 -11 -25 -67q-1 -21 -1 -57q0 -15 0.5 -60.5t0.5 -77.5h573v-1097h-197v984h-376v-984h-197v984h-129z M775 1348v173h197v-173h-197z" />
<glyph unicode="&#xfb02;" horiz-adv-x="1189" d="M73 984v113h129q0 81 1.5 125t7 97.5t18 79.5t33.5 55t54 40.5t78.5 19.5t108.5 8q180 0 518 -40v-1482h-197v1372q-201 22 -312 22q-58 0 -86 -35t-28 -124q0 -15 0.5 -60.5t0.5 -77.5h198v-113h-198v-984h-197v984h-129z" />
<glyph unicode="&#xfb03;" horiz-adv-x="1921" d="M1555 0v1097h197v-1097h-197zM1555 1348v173h197v-173h-197zM767 984v113h129q0 55 0.5 89.5t2.5 76.5t5 67t9.5 54t15 45.5t21.5 34.5t29.5 27t38.5 17t48.5 11t60.5 3q81 0 170 -17v-143q-54 3 -104 3q-62 0 -75 -6q-22 -11 -25 -67q-1 -21 -1 -57q0 -15 0.5 -60.5 t0.5 -77.5h198v-113h-198v-984h-197v984h-129zM73 984v113h129q0 55 0.5 89.5t2.5 76.5t5 67t9.5 54t15 45.5t21.5 34.5t29.5 27t38.5 17t48.5 11t60.5 3q81 0 170 -17v-143q-54 3 -104 3q-62 0 -75 -6q-22 -11 -25 -67q-1 -21 -1 -57q0 -15 0.5 -60.5t0.5 -77.5h198v-113 h-198v-984h-197v984h-129z" />
<glyph unicode="&#xfb04;" horiz-adv-x="1921" d="M1556 0v1486l197 16v-1502h-197zM767 984v113h129q0 55 0.5 89.5t2.5 76.5t5 67t9.5 54t15 45.5t21.5 34.5t29.5 27t38.5 17t48.5 11t60.5 3q81 0 170 -17v-143q-54 3 -104 3q-62 0 -75 -6q-22 -11 -25 -67q-1 -21 -1 -57q0 -15 0.5 -60.5t0.5 -77.5h198v-113h-198v-984 h-197v984h-129zM73 984v113h129q0 55 0.5 89.5t2.5 76.5t5 67t9.5 54t15 45.5t21.5 34.5t29.5 27t38.5 17t48.5 11t60.5 3q81 0 170 -17v-143q-54 3 -104 3q-62 0 -75 -6q-22 -11 -25 -67q-1 -21 -1 -57q0 -15 0.5 -60.5t0.5 -77.5h198v-113h-198v-984h-197v984h-129z" />
</font>
</defs>
</svg>
